M48
;DRILL file {KiCad (5.0.1)-4} date 16/10/2019 14:09:15
;FORMAT={-:-/ absolute / metric / decimal}
FMAT,2
METRIC,TZ
T1C0.400
T2C0.600
T3C0.813
T4C0.850
T5C1.000
T6C1.300
%
G90
G05
M71
T1
X137.4Y-125.4
X138.7Y-125.5
X142.4Y-114.3
X150.Y-103.
X153.7Y-108.
X156.Y-110.
X160.75Y-102.
X161.278Y-106.278
X163.2Y-112.8
X166.6Y-109.5
X168.Y-109.4
X168.Y-123.
X168.4Y-104.2
X169.4Y-104.4
X172.431Y-108.488
X173.417Y-108.656
X174.416Y-108.615
X177.5Y-101.5
X177.5Y-102.5
X177.5Y-103.75
X177.5Y-104.75
X177.5Y-105.75
X177.5Y-107.25
T3
X163.Y-120.
X163.Y-125.08
X170.62Y-120.
X170.62Y-125.08
X175.38Y-120.12
X175.38Y-125.2
X183.Y-120.12
X183.Y-125.2
T4
X180.787Y-89.
X180.787Y-94.
T5
X158.38Y-53.
X160.92Y-53.
X163.46Y-53.
X166.Y-53.
X150.5Y-121.66
X150.5Y-124.2
X153.04Y-121.66
X153.04Y-124.2
X155.58Y-121.66
X155.58Y-124.2
X122.25Y-93.25
X122.25Y-95.79
X122.25Y-98.33
X122.25Y-100.87
X117.Y-84.
X119.54Y-84.
X122.08Y-84.
X124.62Y-84.
X182.2Y-106.2
X182.2Y-108.74
X122.25Y-109.76
X122.25Y-112.3
X122.25Y-114.84
X122.25Y-117.38
X122.25Y-119.92
X122.25Y-122.46
X122.25Y-125.
X97.Y-84.
X99.54Y-84.
X102.08Y-84.
X104.62Y-84.
X137.92Y-53.
X140.46Y-53.
X143.Y-53.
X145.54Y-53.
X137.92Y-84.
X140.46Y-84.
X143.Y-84.
X145.54Y-84.
X96.38Y-53.
X98.92Y-53.
X101.46Y-53.
X104.Y-53.
X117.38Y-53.
X119.92Y-53.
X122.46Y-53.
X125.Y-53.
X157.92Y-84.
X160.46Y-84.
X163.Y-84.
X165.54Y-84.
X182.2Y-98.46
X182.2Y-101.
T6
X178.5Y-64.67
X178.5Y-69.75
T2
X183.137Y-88.G85X183.838Y-88.
G05
X183.838Y-95.G85X183.137Y-95.
G05
T0
M30
