G04 #@! TF.GenerationSoftware,KiCad,Pcbnew,(5.0.1)-4*
G04 #@! TF.CreationDate,2019-10-16T14:09:12+02:00*
G04 #@! TF.ProjectId,Pcb_Sensor_test,5063625F53656E736F725F746573742E,rev?*
G04 #@! TF.SameCoordinates,Original*
G04 #@! TF.FileFunction,Soldermask,Bot*
G04 #@! TF.FilePolarity,Negative*
%FSLAX46Y46*%
G04 Gerber Fmt 4.6, Leading zero omitted, Abs format (unit mm)*
G04 Created by KiCad (PCBNEW (5.0.1)-4) date 16/10/2019 14:09:12*
%MOMM*%
%LPD*%
G01*
G04 APERTURE LIST*
%ADD10C,0.100000*%
G04 APERTURE END LIST*
D10*
G36*
X183218621Y-124479302D02*
X183355022Y-124535801D01*
X183477779Y-124617825D01*
X183582175Y-124722221D01*
X183664199Y-124844978D01*
X183720698Y-124981379D01*
X183749500Y-125126181D01*
X183749500Y-125273819D01*
X183720698Y-125418621D01*
X183664199Y-125555022D01*
X183582175Y-125677779D01*
X183477779Y-125782175D01*
X183355022Y-125864199D01*
X183218621Y-125920698D01*
X183073819Y-125949500D01*
X182926181Y-125949500D01*
X182781379Y-125920698D01*
X182644978Y-125864199D01*
X182522221Y-125782175D01*
X182417825Y-125677779D01*
X182335801Y-125555022D01*
X182279302Y-125418621D01*
X182250500Y-125273819D01*
X182250500Y-125126181D01*
X182279302Y-124981379D01*
X182335801Y-124844978D01*
X182417825Y-124722221D01*
X182522221Y-124617825D01*
X182644978Y-124535801D01*
X182781379Y-124479302D01*
X182926181Y-124450500D01*
X183073819Y-124450500D01*
X183218621Y-124479302D01*
X183218621Y-124479302D01*
G37*
G36*
X175598621Y-124479302D02*
X175735022Y-124535801D01*
X175857779Y-124617825D01*
X175962175Y-124722221D01*
X176044199Y-124844978D01*
X176100698Y-124981379D01*
X176129500Y-125126181D01*
X176129500Y-125273819D01*
X176100698Y-125418621D01*
X176044199Y-125555022D01*
X175962175Y-125677779D01*
X175857779Y-125782175D01*
X175735022Y-125864199D01*
X175598621Y-125920698D01*
X175453819Y-125949500D01*
X175306181Y-125949500D01*
X175161379Y-125920698D01*
X175024978Y-125864199D01*
X174902221Y-125782175D01*
X174797825Y-125677779D01*
X174715801Y-125555022D01*
X174659302Y-125418621D01*
X174630500Y-125273819D01*
X174630500Y-125126181D01*
X174659302Y-124981379D01*
X174715801Y-124844978D01*
X174797825Y-124722221D01*
X174902221Y-124617825D01*
X175024978Y-124535801D01*
X175161379Y-124479302D01*
X175306181Y-124450500D01*
X175453819Y-124450500D01*
X175598621Y-124479302D01*
X175598621Y-124479302D01*
G37*
G36*
X123151000Y-125901000D02*
X121349000Y-125901000D01*
X121349000Y-124099000D01*
X123151000Y-124099000D01*
X123151000Y-125901000D01*
X123151000Y-125901000D01*
G37*
G36*
X170838621Y-124359302D02*
X170975022Y-124415801D01*
X171097779Y-124497825D01*
X171202175Y-124602221D01*
X171284199Y-124724978D01*
X171340698Y-124861379D01*
X171369500Y-125006181D01*
X171369500Y-125153819D01*
X171340698Y-125298621D01*
X171284199Y-125435022D01*
X171202175Y-125557779D01*
X171097779Y-125662175D01*
X170975022Y-125744199D01*
X170838621Y-125800698D01*
X170693819Y-125829500D01*
X170546181Y-125829500D01*
X170401379Y-125800698D01*
X170264978Y-125744199D01*
X170142221Y-125662175D01*
X170037825Y-125557779D01*
X169955801Y-125435022D01*
X169899302Y-125298621D01*
X169870500Y-125153819D01*
X169870500Y-125006181D01*
X169899302Y-124861379D01*
X169955801Y-124724978D01*
X170037825Y-124602221D01*
X170142221Y-124497825D01*
X170264978Y-124415801D01*
X170401379Y-124359302D01*
X170546181Y-124330500D01*
X170693819Y-124330500D01*
X170838621Y-124359302D01*
X170838621Y-124359302D01*
G37*
G36*
X163218621Y-124359302D02*
X163355022Y-124415801D01*
X163477779Y-124497825D01*
X163582175Y-124602221D01*
X163664199Y-124724978D01*
X163720698Y-124861379D01*
X163749500Y-125006181D01*
X163749500Y-125153819D01*
X163720698Y-125298621D01*
X163664199Y-125435022D01*
X163582175Y-125557779D01*
X163477779Y-125662175D01*
X163355022Y-125744199D01*
X163218621Y-125800698D01*
X163073819Y-125829500D01*
X162926181Y-125829500D01*
X162781379Y-125800698D01*
X162644978Y-125744199D01*
X162522221Y-125662175D01*
X162417825Y-125557779D01*
X162335801Y-125435022D01*
X162279302Y-125298621D01*
X162250500Y-125153819D01*
X162250500Y-125006181D01*
X162279302Y-124861379D01*
X162335801Y-124724978D01*
X162417825Y-124602221D01*
X162522221Y-124497825D01*
X162644978Y-124415801D01*
X162781379Y-124359302D01*
X162926181Y-124330500D01*
X163073819Y-124330500D01*
X163218621Y-124359302D01*
X163218621Y-124359302D01*
G37*
G36*
X155690442Y-123305518D02*
X155756627Y-123312037D01*
X155869853Y-123346384D01*
X155926467Y-123363557D01*
X156065087Y-123437652D01*
X156082991Y-123447222D01*
X156118729Y-123476552D01*
X156220186Y-123559814D01*
X156303448Y-123661271D01*
X156332778Y-123697009D01*
X156332779Y-123697011D01*
X156416443Y-123853533D01*
X156416443Y-123853534D01*
X156467963Y-124023373D01*
X156485359Y-124200000D01*
X156467963Y-124376627D01*
X156456079Y-124415802D01*
X156416443Y-124546467D01*
X156386641Y-124602221D01*
X156332778Y-124702991D01*
X156303448Y-124738729D01*
X156220186Y-124840186D01*
X156118729Y-124923448D01*
X156082991Y-124952778D01*
X156082989Y-124952779D01*
X155926467Y-125036443D01*
X155869853Y-125053616D01*
X155756627Y-125087963D01*
X155690442Y-125094482D01*
X155624260Y-125101000D01*
X155535740Y-125101000D01*
X155469558Y-125094482D01*
X155403373Y-125087963D01*
X155290147Y-125053616D01*
X155233533Y-125036443D01*
X155077011Y-124952779D01*
X155077009Y-124952778D01*
X155041271Y-124923448D01*
X154939814Y-124840186D01*
X154856552Y-124738729D01*
X154827222Y-124702991D01*
X154773359Y-124602221D01*
X154743557Y-124546467D01*
X154703921Y-124415802D01*
X154692037Y-124376627D01*
X154674641Y-124200000D01*
X154692037Y-124023373D01*
X154743557Y-123853534D01*
X154743557Y-123853533D01*
X154827221Y-123697011D01*
X154827222Y-123697009D01*
X154856552Y-123661271D01*
X154939814Y-123559814D01*
X155041271Y-123476552D01*
X155077009Y-123447222D01*
X155094913Y-123437652D01*
X155233533Y-123363557D01*
X155290147Y-123346384D01*
X155403373Y-123312037D01*
X155469558Y-123305518D01*
X155535740Y-123299000D01*
X155624260Y-123299000D01*
X155690442Y-123305518D01*
X155690442Y-123305518D01*
G37*
G36*
X151401000Y-125101000D02*
X149599000Y-125101000D01*
X149599000Y-123299000D01*
X151401000Y-123299000D01*
X151401000Y-125101000D01*
X151401000Y-125101000D01*
G37*
G36*
X153150442Y-123305518D02*
X153216627Y-123312037D01*
X153329853Y-123346384D01*
X153386467Y-123363557D01*
X153525087Y-123437652D01*
X153542991Y-123447222D01*
X153578729Y-123476552D01*
X153680186Y-123559814D01*
X153763448Y-123661271D01*
X153792778Y-123697009D01*
X153792779Y-123697011D01*
X153876443Y-123853533D01*
X153876443Y-123853534D01*
X153927963Y-124023373D01*
X153945359Y-124200000D01*
X153927963Y-124376627D01*
X153916079Y-124415802D01*
X153876443Y-124546467D01*
X153846641Y-124602221D01*
X153792778Y-124702991D01*
X153763448Y-124738729D01*
X153680186Y-124840186D01*
X153578729Y-124923448D01*
X153542991Y-124952778D01*
X153542989Y-124952779D01*
X153386467Y-125036443D01*
X153329853Y-125053616D01*
X153216627Y-125087963D01*
X153150442Y-125094482D01*
X153084260Y-125101000D01*
X152995740Y-125101000D01*
X152929558Y-125094482D01*
X152863373Y-125087963D01*
X152750147Y-125053616D01*
X152693533Y-125036443D01*
X152537011Y-124952779D01*
X152537009Y-124952778D01*
X152501271Y-124923448D01*
X152399814Y-124840186D01*
X152316552Y-124738729D01*
X152287222Y-124702991D01*
X152233359Y-124602221D01*
X152203557Y-124546467D01*
X152163921Y-124415802D01*
X152152037Y-124376627D01*
X152134641Y-124200000D01*
X152152037Y-124023373D01*
X152203557Y-123853534D01*
X152203557Y-123853533D01*
X152287221Y-123697011D01*
X152287222Y-123697009D01*
X152316552Y-123661271D01*
X152399814Y-123559814D01*
X152501271Y-123476552D01*
X152537009Y-123447222D01*
X152554913Y-123437652D01*
X152693533Y-123363557D01*
X152750147Y-123346384D01*
X152863373Y-123312037D01*
X152929558Y-123305518D01*
X152995740Y-123299000D01*
X153084260Y-123299000D01*
X153150442Y-123305518D01*
X153150442Y-123305518D01*
G37*
G36*
X122360442Y-121565518D02*
X122426627Y-121572037D01*
X122539853Y-121606384D01*
X122596467Y-121623557D01*
X122664646Y-121660000D01*
X122752991Y-121707222D01*
X122788729Y-121736552D01*
X122890186Y-121819814D01*
X122973448Y-121921271D01*
X123002778Y-121957009D01*
X123002779Y-121957011D01*
X123086443Y-122113533D01*
X123086443Y-122113534D01*
X123137963Y-122283373D01*
X123155359Y-122460000D01*
X123137963Y-122636627D01*
X123103616Y-122749853D01*
X123086443Y-122806467D01*
X123012348Y-122945087D01*
X123002778Y-122962991D01*
X122973448Y-122998729D01*
X122890186Y-123100186D01*
X122788729Y-123183448D01*
X122752991Y-123212778D01*
X122752989Y-123212779D01*
X122596467Y-123296443D01*
X122545059Y-123312037D01*
X122426627Y-123347963D01*
X122360443Y-123354481D01*
X122294260Y-123361000D01*
X122205740Y-123361000D01*
X122139557Y-123354481D01*
X122073373Y-123347963D01*
X121954941Y-123312037D01*
X121903533Y-123296443D01*
X121747011Y-123212779D01*
X121747009Y-123212778D01*
X121711271Y-123183448D01*
X121609814Y-123100186D01*
X121526552Y-122998729D01*
X121497222Y-122962991D01*
X121487652Y-122945087D01*
X121413557Y-122806467D01*
X121396384Y-122749853D01*
X121362037Y-122636627D01*
X121344641Y-122460000D01*
X121362037Y-122283373D01*
X121413557Y-122113534D01*
X121413557Y-122113533D01*
X121497221Y-121957011D01*
X121497222Y-121957009D01*
X121526552Y-121921271D01*
X121609814Y-121819814D01*
X121711271Y-121736552D01*
X121747009Y-121707222D01*
X121835354Y-121660000D01*
X121903533Y-121623557D01*
X121960147Y-121606384D01*
X122073373Y-121572037D01*
X122139558Y-121565518D01*
X122205740Y-121559000D01*
X122294260Y-121559000D01*
X122360442Y-121565518D01*
X122360442Y-121565518D01*
G37*
G36*
X155690442Y-120765518D02*
X155756627Y-120772037D01*
X155869853Y-120806384D01*
X155926467Y-120823557D01*
X156012419Y-120869500D01*
X156082991Y-120907222D01*
X156118729Y-120936552D01*
X156220186Y-121019814D01*
X156303448Y-121121271D01*
X156332778Y-121157009D01*
X156332779Y-121157011D01*
X156416443Y-121313533D01*
X156416443Y-121313534D01*
X156467963Y-121483373D01*
X156485359Y-121660000D01*
X156467963Y-121836627D01*
X156433616Y-121949853D01*
X156416443Y-122006467D01*
X156359214Y-122113533D01*
X156332778Y-122162991D01*
X156303448Y-122198729D01*
X156220186Y-122300186D01*
X156118729Y-122383448D01*
X156082991Y-122412778D01*
X156082989Y-122412779D01*
X155926467Y-122496443D01*
X155869853Y-122513616D01*
X155756627Y-122547963D01*
X155690442Y-122554482D01*
X155624260Y-122561000D01*
X155535740Y-122561000D01*
X155469558Y-122554482D01*
X155403373Y-122547963D01*
X155290147Y-122513616D01*
X155233533Y-122496443D01*
X155077011Y-122412779D01*
X155077009Y-122412778D01*
X155041271Y-122383448D01*
X154939814Y-122300186D01*
X154856552Y-122198729D01*
X154827222Y-122162991D01*
X154800786Y-122113533D01*
X154743557Y-122006467D01*
X154726384Y-121949853D01*
X154692037Y-121836627D01*
X154674641Y-121660000D01*
X154692037Y-121483373D01*
X154743557Y-121313534D01*
X154743557Y-121313533D01*
X154827221Y-121157011D01*
X154827222Y-121157009D01*
X154856552Y-121121271D01*
X154939814Y-121019814D01*
X155041271Y-120936552D01*
X155077009Y-120907222D01*
X155147581Y-120869500D01*
X155233533Y-120823557D01*
X155290147Y-120806384D01*
X155403373Y-120772037D01*
X155469558Y-120765518D01*
X155535740Y-120759000D01*
X155624260Y-120759000D01*
X155690442Y-120765518D01*
X155690442Y-120765518D01*
G37*
G36*
X153150442Y-120765518D02*
X153216627Y-120772037D01*
X153329853Y-120806384D01*
X153386467Y-120823557D01*
X153472419Y-120869500D01*
X153542991Y-120907222D01*
X153578729Y-120936552D01*
X153680186Y-121019814D01*
X153763448Y-121121271D01*
X153792778Y-121157009D01*
X153792779Y-121157011D01*
X153876443Y-121313533D01*
X153876443Y-121313534D01*
X153927963Y-121483373D01*
X153945359Y-121660000D01*
X153927963Y-121836627D01*
X153893616Y-121949853D01*
X153876443Y-122006467D01*
X153819214Y-122113533D01*
X153792778Y-122162991D01*
X153763448Y-122198729D01*
X153680186Y-122300186D01*
X153578729Y-122383448D01*
X153542991Y-122412778D01*
X153542989Y-122412779D01*
X153386467Y-122496443D01*
X153329853Y-122513616D01*
X153216627Y-122547963D01*
X153150442Y-122554482D01*
X153084260Y-122561000D01*
X152995740Y-122561000D01*
X152929558Y-122554482D01*
X152863373Y-122547963D01*
X152750147Y-122513616D01*
X152693533Y-122496443D01*
X152537011Y-122412779D01*
X152537009Y-122412778D01*
X152501271Y-122383448D01*
X152399814Y-122300186D01*
X152316552Y-122198729D01*
X152287222Y-122162991D01*
X152260786Y-122113533D01*
X152203557Y-122006467D01*
X152186384Y-121949853D01*
X152152037Y-121836627D01*
X152134641Y-121660000D01*
X152152037Y-121483373D01*
X152203557Y-121313534D01*
X152203557Y-121313533D01*
X152287221Y-121157011D01*
X152287222Y-121157009D01*
X152316552Y-121121271D01*
X152399814Y-121019814D01*
X152501271Y-120936552D01*
X152537009Y-120907222D01*
X152607581Y-120869500D01*
X152693533Y-120823557D01*
X152750147Y-120806384D01*
X152863373Y-120772037D01*
X152929558Y-120765518D01*
X152995740Y-120759000D01*
X153084260Y-120759000D01*
X153150442Y-120765518D01*
X153150442Y-120765518D01*
G37*
G36*
X150610442Y-120765518D02*
X150676627Y-120772037D01*
X150789853Y-120806384D01*
X150846467Y-120823557D01*
X150932419Y-120869500D01*
X151002991Y-120907222D01*
X151038729Y-120936552D01*
X151140186Y-121019814D01*
X151223448Y-121121271D01*
X151252778Y-121157009D01*
X151252779Y-121157011D01*
X151336443Y-121313533D01*
X151336443Y-121313534D01*
X151387963Y-121483373D01*
X151405359Y-121660000D01*
X151387963Y-121836627D01*
X151353616Y-121949853D01*
X151336443Y-122006467D01*
X151279214Y-122113533D01*
X151252778Y-122162991D01*
X151223448Y-122198729D01*
X151140186Y-122300186D01*
X151038729Y-122383448D01*
X151002991Y-122412778D01*
X151002989Y-122412779D01*
X150846467Y-122496443D01*
X150789853Y-122513616D01*
X150676627Y-122547963D01*
X150610442Y-122554482D01*
X150544260Y-122561000D01*
X150455740Y-122561000D01*
X150389558Y-122554482D01*
X150323373Y-122547963D01*
X150210147Y-122513616D01*
X150153533Y-122496443D01*
X149997011Y-122412779D01*
X149997009Y-122412778D01*
X149961271Y-122383448D01*
X149859814Y-122300186D01*
X149776552Y-122198729D01*
X149747222Y-122162991D01*
X149720786Y-122113533D01*
X149663557Y-122006467D01*
X149646384Y-121949853D01*
X149612037Y-121836627D01*
X149594641Y-121660000D01*
X149612037Y-121483373D01*
X149663557Y-121313534D01*
X149663557Y-121313533D01*
X149747221Y-121157011D01*
X149747222Y-121157009D01*
X149776552Y-121121271D01*
X149859814Y-121019814D01*
X149961271Y-120936552D01*
X149997009Y-120907222D01*
X150067581Y-120869500D01*
X150153533Y-120823557D01*
X150210147Y-120806384D01*
X150323373Y-120772037D01*
X150389558Y-120765518D01*
X150455740Y-120759000D01*
X150544260Y-120759000D01*
X150610442Y-120765518D01*
X150610442Y-120765518D01*
G37*
G36*
X183218621Y-119399302D02*
X183355022Y-119455801D01*
X183477779Y-119537825D01*
X183582175Y-119642221D01*
X183664199Y-119764978D01*
X183720698Y-119901379D01*
X183749500Y-120046181D01*
X183749500Y-120193819D01*
X183720698Y-120338621D01*
X183664199Y-120475022D01*
X183582175Y-120597779D01*
X183477779Y-120702175D01*
X183355022Y-120784199D01*
X183218621Y-120840698D01*
X183073819Y-120869500D01*
X182926181Y-120869500D01*
X182781379Y-120840698D01*
X182644978Y-120784199D01*
X182522221Y-120702175D01*
X182417825Y-120597779D01*
X182335801Y-120475022D01*
X182279302Y-120338621D01*
X182250500Y-120193819D01*
X182250500Y-120046181D01*
X182279302Y-119901379D01*
X182335801Y-119764978D01*
X182417825Y-119642221D01*
X182522221Y-119537825D01*
X182644978Y-119455801D01*
X182781379Y-119399302D01*
X182926181Y-119370500D01*
X183073819Y-119370500D01*
X183218621Y-119399302D01*
X183218621Y-119399302D01*
G37*
G36*
X175598621Y-119399302D02*
X175735022Y-119455801D01*
X175857779Y-119537825D01*
X175962175Y-119642221D01*
X176044199Y-119764978D01*
X176100698Y-119901379D01*
X176129500Y-120046181D01*
X176129500Y-120193819D01*
X176100698Y-120338621D01*
X176044199Y-120475022D01*
X175962175Y-120597779D01*
X175857779Y-120702175D01*
X175735022Y-120784199D01*
X175598621Y-120840698D01*
X175453819Y-120869500D01*
X175306181Y-120869500D01*
X175161379Y-120840698D01*
X175024978Y-120784199D01*
X174902221Y-120702175D01*
X174797825Y-120597779D01*
X174715801Y-120475022D01*
X174659302Y-120338621D01*
X174630500Y-120193819D01*
X174630500Y-120046181D01*
X174659302Y-119901379D01*
X174715801Y-119764978D01*
X174797825Y-119642221D01*
X174902221Y-119537825D01*
X175024978Y-119455801D01*
X175161379Y-119399302D01*
X175306181Y-119370500D01*
X175453819Y-119370500D01*
X175598621Y-119399302D01*
X175598621Y-119399302D01*
G37*
G36*
X122360442Y-119025518D02*
X122426627Y-119032037D01*
X122539853Y-119066384D01*
X122596467Y-119083557D01*
X122735087Y-119157652D01*
X122752991Y-119167222D01*
X122788729Y-119196552D01*
X122890186Y-119279814D01*
X122936133Y-119335802D01*
X123002778Y-119417009D01*
X123002779Y-119417011D01*
X123086443Y-119573533D01*
X123086443Y-119573534D01*
X123137963Y-119743373D01*
X123155359Y-119920000D01*
X123137963Y-120096627D01*
X123108480Y-120193819D01*
X123086443Y-120266467D01*
X123012348Y-120405087D01*
X123002778Y-120422991D01*
X122973448Y-120458729D01*
X122890186Y-120560186D01*
X122788729Y-120643448D01*
X122752991Y-120672778D01*
X122752989Y-120672779D01*
X122596467Y-120756443D01*
X122545059Y-120772037D01*
X122426627Y-120807963D01*
X122360442Y-120814482D01*
X122294260Y-120821000D01*
X122205740Y-120821000D01*
X122139558Y-120814482D01*
X122073373Y-120807963D01*
X121954941Y-120772037D01*
X121903533Y-120756443D01*
X121747011Y-120672779D01*
X121747009Y-120672778D01*
X121711271Y-120643448D01*
X121609814Y-120560186D01*
X121526552Y-120458729D01*
X121497222Y-120422991D01*
X121487652Y-120405087D01*
X121413557Y-120266467D01*
X121391520Y-120193819D01*
X121362037Y-120096627D01*
X121344641Y-119920000D01*
X121362037Y-119743373D01*
X121413557Y-119573534D01*
X121413557Y-119573533D01*
X121497221Y-119417011D01*
X121497222Y-119417009D01*
X121563867Y-119335802D01*
X121609814Y-119279814D01*
X121711271Y-119196552D01*
X121747009Y-119167222D01*
X121764913Y-119157652D01*
X121903533Y-119083557D01*
X121960147Y-119066384D01*
X122073373Y-119032037D01*
X122139558Y-119025518D01*
X122205740Y-119019000D01*
X122294260Y-119019000D01*
X122360442Y-119025518D01*
X122360442Y-119025518D01*
G37*
G36*
X163218621Y-119279302D02*
X163355022Y-119335801D01*
X163477779Y-119417825D01*
X163582175Y-119522221D01*
X163664199Y-119644978D01*
X163720698Y-119781379D01*
X163749500Y-119926181D01*
X163749500Y-120073819D01*
X163720698Y-120218621D01*
X163664199Y-120355022D01*
X163582175Y-120477779D01*
X163477779Y-120582175D01*
X163355022Y-120664199D01*
X163218621Y-120720698D01*
X163073819Y-120749500D01*
X162926181Y-120749500D01*
X162781379Y-120720698D01*
X162644978Y-120664199D01*
X162522221Y-120582175D01*
X162417825Y-120477779D01*
X162335801Y-120355022D01*
X162279302Y-120218621D01*
X162250500Y-120073819D01*
X162250500Y-119926181D01*
X162279302Y-119781379D01*
X162335801Y-119644978D01*
X162417825Y-119522221D01*
X162522221Y-119417825D01*
X162644978Y-119335801D01*
X162781379Y-119279302D01*
X162926181Y-119250500D01*
X163073819Y-119250500D01*
X163218621Y-119279302D01*
X163218621Y-119279302D01*
G37*
G36*
X170838621Y-119279302D02*
X170975022Y-119335801D01*
X171097779Y-119417825D01*
X171202175Y-119522221D01*
X171284199Y-119644978D01*
X171340698Y-119781379D01*
X171369500Y-119926181D01*
X171369500Y-120073819D01*
X171340698Y-120218621D01*
X171284199Y-120355022D01*
X171202175Y-120477779D01*
X171097779Y-120582175D01*
X170975022Y-120664199D01*
X170838621Y-120720698D01*
X170693819Y-120749500D01*
X170546181Y-120749500D01*
X170401379Y-120720698D01*
X170264978Y-120664199D01*
X170142221Y-120582175D01*
X170037825Y-120477779D01*
X169955801Y-120355022D01*
X169899302Y-120218621D01*
X169870500Y-120073819D01*
X169870500Y-119926181D01*
X169899302Y-119781379D01*
X169955801Y-119644978D01*
X170037825Y-119522221D01*
X170142221Y-119417825D01*
X170264978Y-119335801D01*
X170401379Y-119279302D01*
X170546181Y-119250500D01*
X170693819Y-119250500D01*
X170838621Y-119279302D01*
X170838621Y-119279302D01*
G37*
G36*
X122360443Y-116485519D02*
X122426627Y-116492037D01*
X122539853Y-116526384D01*
X122596467Y-116543557D01*
X122735087Y-116617652D01*
X122752991Y-116627222D01*
X122788729Y-116656552D01*
X122890186Y-116739814D01*
X122973448Y-116841271D01*
X123002778Y-116877009D01*
X123002779Y-116877011D01*
X123086443Y-117033533D01*
X123086443Y-117033534D01*
X123137963Y-117203373D01*
X123155359Y-117380000D01*
X123137963Y-117556627D01*
X123103616Y-117669853D01*
X123086443Y-117726467D01*
X123012348Y-117865087D01*
X123002778Y-117882991D01*
X122973448Y-117918729D01*
X122890186Y-118020186D01*
X122788729Y-118103448D01*
X122752991Y-118132778D01*
X122752989Y-118132779D01*
X122596467Y-118216443D01*
X122539853Y-118233616D01*
X122426627Y-118267963D01*
X122360442Y-118274482D01*
X122294260Y-118281000D01*
X122205740Y-118281000D01*
X122139558Y-118274482D01*
X122073373Y-118267963D01*
X121960147Y-118233616D01*
X121903533Y-118216443D01*
X121747011Y-118132779D01*
X121747009Y-118132778D01*
X121711271Y-118103448D01*
X121609814Y-118020186D01*
X121526552Y-117918729D01*
X121497222Y-117882991D01*
X121487652Y-117865087D01*
X121413557Y-117726467D01*
X121396384Y-117669853D01*
X121362037Y-117556627D01*
X121344641Y-117380000D01*
X121362037Y-117203373D01*
X121413557Y-117033534D01*
X121413557Y-117033533D01*
X121497221Y-116877011D01*
X121497222Y-116877009D01*
X121526552Y-116841271D01*
X121609814Y-116739814D01*
X121711271Y-116656552D01*
X121747009Y-116627222D01*
X121764913Y-116617652D01*
X121903533Y-116543557D01*
X121960147Y-116526384D01*
X122073373Y-116492037D01*
X122139557Y-116485519D01*
X122205740Y-116479000D01*
X122294260Y-116479000D01*
X122360443Y-116485519D01*
X122360443Y-116485519D01*
G37*
G36*
X122360443Y-113945519D02*
X122426627Y-113952037D01*
X122539853Y-113986384D01*
X122596467Y-114003557D01*
X122735087Y-114077652D01*
X122752991Y-114087222D01*
X122788729Y-114116552D01*
X122890186Y-114199814D01*
X122973448Y-114301271D01*
X123002778Y-114337009D01*
X123002779Y-114337011D01*
X123086443Y-114493533D01*
X123086443Y-114493534D01*
X123137963Y-114663373D01*
X123155359Y-114840000D01*
X123137963Y-115016627D01*
X123103616Y-115129853D01*
X123086443Y-115186467D01*
X123012348Y-115325087D01*
X123002778Y-115342991D01*
X122973448Y-115378729D01*
X122890186Y-115480186D01*
X122788729Y-115563448D01*
X122752991Y-115592778D01*
X122752989Y-115592779D01*
X122596467Y-115676443D01*
X122539853Y-115693616D01*
X122426627Y-115727963D01*
X122360443Y-115734481D01*
X122294260Y-115741000D01*
X122205740Y-115741000D01*
X122139557Y-115734481D01*
X122073373Y-115727963D01*
X121960147Y-115693616D01*
X121903533Y-115676443D01*
X121747011Y-115592779D01*
X121747009Y-115592778D01*
X121711271Y-115563448D01*
X121609814Y-115480186D01*
X121526552Y-115378729D01*
X121497222Y-115342991D01*
X121487652Y-115325087D01*
X121413557Y-115186467D01*
X121396384Y-115129853D01*
X121362037Y-115016627D01*
X121344641Y-114840000D01*
X121362037Y-114663373D01*
X121413557Y-114493534D01*
X121413557Y-114493533D01*
X121497221Y-114337011D01*
X121497222Y-114337009D01*
X121526552Y-114301271D01*
X121609814Y-114199814D01*
X121711271Y-114116552D01*
X121747009Y-114087222D01*
X121764913Y-114077652D01*
X121903533Y-114003557D01*
X121960147Y-113986384D01*
X122073373Y-113952037D01*
X122139557Y-113945519D01*
X122205740Y-113939000D01*
X122294260Y-113939000D01*
X122360443Y-113945519D01*
X122360443Y-113945519D01*
G37*
G36*
X122360442Y-111405518D02*
X122426627Y-111412037D01*
X122539853Y-111446384D01*
X122596467Y-111463557D01*
X122735087Y-111537652D01*
X122752991Y-111547222D01*
X122788729Y-111576552D01*
X122890186Y-111659814D01*
X122973448Y-111761271D01*
X123002778Y-111797009D01*
X123002779Y-111797011D01*
X123086443Y-111953533D01*
X123086443Y-111953534D01*
X123137963Y-112123373D01*
X123155359Y-112300000D01*
X123137963Y-112476627D01*
X123103616Y-112589853D01*
X123086443Y-112646467D01*
X123012348Y-112785087D01*
X123002778Y-112802991D01*
X122973448Y-112838729D01*
X122890186Y-112940186D01*
X122788729Y-113023448D01*
X122752991Y-113052778D01*
X122752989Y-113052779D01*
X122596467Y-113136443D01*
X122539853Y-113153616D01*
X122426627Y-113187963D01*
X122360442Y-113194482D01*
X122294260Y-113201000D01*
X122205740Y-113201000D01*
X122139558Y-113194482D01*
X122073373Y-113187963D01*
X121960147Y-113153616D01*
X121903533Y-113136443D01*
X121747011Y-113052779D01*
X121747009Y-113052778D01*
X121711271Y-113023448D01*
X121609814Y-112940186D01*
X121526552Y-112838729D01*
X121497222Y-112802991D01*
X121487652Y-112785087D01*
X121413557Y-112646467D01*
X121396384Y-112589853D01*
X121362037Y-112476627D01*
X121344641Y-112300000D01*
X121362037Y-112123373D01*
X121413557Y-111953534D01*
X121413557Y-111953533D01*
X121497221Y-111797011D01*
X121497222Y-111797009D01*
X121526552Y-111761271D01*
X121609814Y-111659814D01*
X121711271Y-111576552D01*
X121747009Y-111547222D01*
X121764913Y-111537652D01*
X121903533Y-111463557D01*
X121960147Y-111446384D01*
X122073373Y-111412037D01*
X122139558Y-111405518D01*
X122205740Y-111399000D01*
X122294260Y-111399000D01*
X122360442Y-111405518D01*
X122360442Y-111405518D01*
G37*
G36*
X122360443Y-108865519D02*
X122426627Y-108872037D01*
X122539853Y-108906384D01*
X122596467Y-108923557D01*
X122735087Y-108997652D01*
X122752991Y-109007222D01*
X122788729Y-109036552D01*
X122890186Y-109119814D01*
X122973448Y-109221271D01*
X123002778Y-109257009D01*
X123002779Y-109257011D01*
X123086443Y-109413533D01*
X123086443Y-109413534D01*
X123137963Y-109583373D01*
X123155359Y-109760000D01*
X123137963Y-109936627D01*
X123103616Y-110049853D01*
X123086443Y-110106467D01*
X123012348Y-110245087D01*
X123002778Y-110262991D01*
X122973448Y-110298729D01*
X122890186Y-110400186D01*
X122788729Y-110483448D01*
X122752991Y-110512778D01*
X122752989Y-110512779D01*
X122596467Y-110596443D01*
X122539853Y-110613616D01*
X122426627Y-110647963D01*
X122360443Y-110654481D01*
X122294260Y-110661000D01*
X122205740Y-110661000D01*
X122139557Y-110654481D01*
X122073373Y-110647963D01*
X121960147Y-110613616D01*
X121903533Y-110596443D01*
X121747011Y-110512779D01*
X121747009Y-110512778D01*
X121711271Y-110483448D01*
X121609814Y-110400186D01*
X121526552Y-110298729D01*
X121497222Y-110262991D01*
X121487652Y-110245087D01*
X121413557Y-110106467D01*
X121396384Y-110049853D01*
X121362037Y-109936627D01*
X121344641Y-109760000D01*
X121362037Y-109583373D01*
X121413557Y-109413534D01*
X121413557Y-109413533D01*
X121497221Y-109257011D01*
X121497222Y-109257009D01*
X121526552Y-109221271D01*
X121609814Y-109119814D01*
X121711271Y-109036552D01*
X121747009Y-109007222D01*
X121764913Y-108997652D01*
X121903533Y-108923557D01*
X121960147Y-108906384D01*
X122073373Y-108872037D01*
X122139557Y-108865519D01*
X122205740Y-108859000D01*
X122294260Y-108859000D01*
X122360443Y-108865519D01*
X122360443Y-108865519D01*
G37*
G36*
X182310442Y-107845518D02*
X182376627Y-107852037D01*
X182489853Y-107886384D01*
X182546467Y-107903557D01*
X182685087Y-107977652D01*
X182702991Y-107987222D01*
X182738729Y-108016552D01*
X182840186Y-108099814D01*
X182923448Y-108201271D01*
X182952778Y-108237009D01*
X182952779Y-108237011D01*
X183036443Y-108393533D01*
X183036443Y-108393534D01*
X183087963Y-108563373D01*
X183105359Y-108740000D01*
X183087963Y-108916627D01*
X183060482Y-109007221D01*
X183036443Y-109086467D01*
X182962348Y-109225087D01*
X182952778Y-109242991D01*
X182941272Y-109257011D01*
X182840186Y-109380186D01*
X182738729Y-109463448D01*
X182702991Y-109492778D01*
X182702989Y-109492779D01*
X182546467Y-109576443D01*
X182489853Y-109593616D01*
X182376627Y-109627963D01*
X182310442Y-109634482D01*
X182244260Y-109641000D01*
X182155740Y-109641000D01*
X182089558Y-109634482D01*
X182023373Y-109627963D01*
X181910147Y-109593616D01*
X181853533Y-109576443D01*
X181697011Y-109492779D01*
X181697009Y-109492778D01*
X181661271Y-109463448D01*
X181559814Y-109380186D01*
X181458728Y-109257011D01*
X181447222Y-109242991D01*
X181437652Y-109225087D01*
X181363557Y-109086467D01*
X181339518Y-109007221D01*
X181312037Y-108916627D01*
X181294641Y-108740000D01*
X181312037Y-108563373D01*
X181363557Y-108393534D01*
X181363557Y-108393533D01*
X181447221Y-108237011D01*
X181447222Y-108237009D01*
X181476552Y-108201271D01*
X181559814Y-108099814D01*
X181661271Y-108016552D01*
X181697009Y-107987222D01*
X181714913Y-107977652D01*
X181853533Y-107903557D01*
X181910147Y-107886384D01*
X182023373Y-107852037D01*
X182089558Y-107845518D01*
X182155740Y-107839000D01*
X182244260Y-107839000D01*
X182310442Y-107845518D01*
X182310442Y-107845518D01*
G37*
G36*
X183101000Y-107101000D02*
X181299000Y-107101000D01*
X181299000Y-105299000D01*
X183101000Y-105299000D01*
X183101000Y-107101000D01*
X183101000Y-107101000D01*
G37*
G36*
X183101000Y-101901000D02*
X181299000Y-101901000D01*
X181299000Y-100099000D01*
X183101000Y-100099000D01*
X183101000Y-101901000D01*
X183101000Y-101901000D01*
G37*
G36*
X122360443Y-99975519D02*
X122426627Y-99982037D01*
X122539853Y-100016384D01*
X122596467Y-100033557D01*
X122718900Y-100099000D01*
X122752991Y-100117222D01*
X122788729Y-100146552D01*
X122890186Y-100229814D01*
X122973448Y-100331271D01*
X123002778Y-100367009D01*
X123002779Y-100367011D01*
X123086443Y-100523533D01*
X123086443Y-100523534D01*
X123137963Y-100693373D01*
X123155359Y-100870000D01*
X123137963Y-101046627D01*
X123103616Y-101159853D01*
X123086443Y-101216467D01*
X123012348Y-101355087D01*
X123002778Y-101372991D01*
X122973448Y-101408729D01*
X122890186Y-101510186D01*
X122788729Y-101593448D01*
X122752991Y-101622778D01*
X122752989Y-101622779D01*
X122596467Y-101706443D01*
X122539853Y-101723616D01*
X122426627Y-101757963D01*
X122360443Y-101764481D01*
X122294260Y-101771000D01*
X122205740Y-101771000D01*
X122139557Y-101764481D01*
X122073373Y-101757963D01*
X121960147Y-101723616D01*
X121903533Y-101706443D01*
X121747011Y-101622779D01*
X121747009Y-101622778D01*
X121711271Y-101593448D01*
X121609814Y-101510186D01*
X121526552Y-101408729D01*
X121497222Y-101372991D01*
X121487652Y-101355087D01*
X121413557Y-101216467D01*
X121396384Y-101159853D01*
X121362037Y-101046627D01*
X121344641Y-100870000D01*
X121362037Y-100693373D01*
X121413557Y-100523534D01*
X121413557Y-100523533D01*
X121497221Y-100367011D01*
X121497222Y-100367009D01*
X121526552Y-100331271D01*
X121609814Y-100229814D01*
X121711271Y-100146552D01*
X121747009Y-100117222D01*
X121781100Y-100099000D01*
X121903533Y-100033557D01*
X121960147Y-100016384D01*
X122073373Y-99982037D01*
X122139557Y-99975519D01*
X122205740Y-99969000D01*
X122294260Y-99969000D01*
X122360443Y-99975519D01*
X122360443Y-99975519D01*
G37*
G36*
X182310442Y-97565518D02*
X182376627Y-97572037D01*
X182489853Y-97606384D01*
X182546467Y-97623557D01*
X182670423Y-97689814D01*
X182702991Y-97707222D01*
X182738729Y-97736552D01*
X182840186Y-97819814D01*
X182923448Y-97921271D01*
X182952778Y-97957009D01*
X182952779Y-97957011D01*
X183036443Y-98113533D01*
X183036443Y-98113534D01*
X183087963Y-98283373D01*
X183105359Y-98460000D01*
X183087963Y-98636627D01*
X183053616Y-98749853D01*
X183036443Y-98806467D01*
X183022266Y-98832989D01*
X182952778Y-98962991D01*
X182946873Y-98970186D01*
X182840186Y-99100186D01*
X182759450Y-99166443D01*
X182702991Y-99212778D01*
X182702989Y-99212779D01*
X182546467Y-99296443D01*
X182489853Y-99313616D01*
X182376627Y-99347963D01*
X182310443Y-99354481D01*
X182244260Y-99361000D01*
X182155740Y-99361000D01*
X182089557Y-99354481D01*
X182023373Y-99347963D01*
X181910147Y-99313616D01*
X181853533Y-99296443D01*
X181697011Y-99212779D01*
X181697009Y-99212778D01*
X181640550Y-99166443D01*
X181559814Y-99100186D01*
X181453127Y-98970186D01*
X181447222Y-98962991D01*
X181377734Y-98832989D01*
X181363557Y-98806467D01*
X181346384Y-98749853D01*
X181312037Y-98636627D01*
X181294641Y-98460000D01*
X181312037Y-98283373D01*
X181363557Y-98113534D01*
X181363557Y-98113533D01*
X181447221Y-97957011D01*
X181447222Y-97957009D01*
X181476552Y-97921271D01*
X181559814Y-97819814D01*
X181661271Y-97736552D01*
X181697009Y-97707222D01*
X181729577Y-97689814D01*
X181853533Y-97623557D01*
X181910147Y-97606384D01*
X182023373Y-97572037D01*
X182089557Y-97565519D01*
X182155740Y-97559000D01*
X182244260Y-97559000D01*
X182310442Y-97565518D01*
X182310442Y-97565518D01*
G37*
G36*
X122360443Y-97435519D02*
X122426627Y-97442037D01*
X122539853Y-97476384D01*
X122596467Y-97493557D01*
X122718900Y-97559000D01*
X122752991Y-97577222D01*
X122788729Y-97606552D01*
X122890186Y-97689814D01*
X122973448Y-97791271D01*
X123002778Y-97827009D01*
X123002779Y-97827011D01*
X123086443Y-97983533D01*
X123086443Y-97983534D01*
X123137963Y-98153373D01*
X123155359Y-98330000D01*
X123137963Y-98506627D01*
X123103616Y-98619853D01*
X123086443Y-98676467D01*
X123012348Y-98815087D01*
X123002778Y-98832991D01*
X122973448Y-98868729D01*
X122890186Y-98970186D01*
X122788729Y-99053448D01*
X122752991Y-99082778D01*
X122752989Y-99082779D01*
X122596467Y-99166443D01*
X122539853Y-99183616D01*
X122426627Y-99217963D01*
X122360442Y-99224482D01*
X122294260Y-99231000D01*
X122205740Y-99231000D01*
X122139558Y-99224482D01*
X122073373Y-99217963D01*
X121960147Y-99183616D01*
X121903533Y-99166443D01*
X121747011Y-99082779D01*
X121747009Y-99082778D01*
X121711271Y-99053448D01*
X121609814Y-98970186D01*
X121526552Y-98868729D01*
X121497222Y-98832991D01*
X121487652Y-98815087D01*
X121413557Y-98676467D01*
X121396384Y-98619853D01*
X121362037Y-98506627D01*
X121344641Y-98330000D01*
X121362037Y-98153373D01*
X121413557Y-97983534D01*
X121413557Y-97983533D01*
X121497221Y-97827011D01*
X121497222Y-97827009D01*
X121526552Y-97791271D01*
X121609814Y-97689814D01*
X121711271Y-97606552D01*
X121747009Y-97577222D01*
X121781100Y-97559000D01*
X121903533Y-97493557D01*
X121960147Y-97476384D01*
X122073373Y-97442037D01*
X122139557Y-97435519D01*
X122205740Y-97429000D01*
X122294260Y-97429000D01*
X122360443Y-97435519D01*
X122360443Y-97435519D01*
G37*
G36*
X122360443Y-94895519D02*
X122426627Y-94902037D01*
X122539853Y-94936384D01*
X122596467Y-94953557D01*
X122683354Y-95000000D01*
X122752991Y-95037222D01*
X122788729Y-95066552D01*
X122890186Y-95149814D01*
X122972678Y-95250332D01*
X123002778Y-95287009D01*
X123002779Y-95287011D01*
X123086443Y-95443533D01*
X123103616Y-95500147D01*
X123137963Y-95613373D01*
X123155359Y-95790000D01*
X123137963Y-95966627D01*
X123103616Y-96079853D01*
X123086443Y-96136467D01*
X123012348Y-96275087D01*
X123002778Y-96292991D01*
X122973448Y-96328729D01*
X122890186Y-96430186D01*
X122788729Y-96513448D01*
X122752991Y-96542778D01*
X122752989Y-96542779D01*
X122596467Y-96626443D01*
X122539853Y-96643616D01*
X122426627Y-96677963D01*
X122360443Y-96684481D01*
X122294260Y-96691000D01*
X122205740Y-96691000D01*
X122139558Y-96684482D01*
X122073373Y-96677963D01*
X121960147Y-96643616D01*
X121903533Y-96626443D01*
X121747011Y-96542779D01*
X121747009Y-96542778D01*
X121711271Y-96513448D01*
X121609814Y-96430186D01*
X121526552Y-96328729D01*
X121497222Y-96292991D01*
X121487652Y-96275087D01*
X121413557Y-96136467D01*
X121396384Y-96079853D01*
X121362037Y-95966627D01*
X121344641Y-95790000D01*
X121362037Y-95613373D01*
X121396384Y-95500147D01*
X121413557Y-95443533D01*
X121497221Y-95287011D01*
X121497222Y-95287009D01*
X121527322Y-95250332D01*
X121609814Y-95149814D01*
X121711271Y-95066552D01*
X121747009Y-95037222D01*
X121816646Y-95000000D01*
X121903533Y-94953557D01*
X121960147Y-94936384D01*
X122073373Y-94902037D01*
X122139557Y-94895519D01*
X122205740Y-94889000D01*
X122294260Y-94889000D01*
X122360443Y-94895519D01*
X122360443Y-94895519D01*
G37*
G36*
X183901355Y-94352140D02*
X183965118Y-94358420D01*
X184046927Y-94383237D01*
X184087833Y-94395645D01*
X184187991Y-94449181D01*
X184200926Y-94456095D01*
X184300053Y-94537447D01*
X184381405Y-94636574D01*
X184381406Y-94636576D01*
X184441855Y-94749667D01*
X184441855Y-94749668D01*
X184479080Y-94872382D01*
X184491649Y-95000000D01*
X184479080Y-95127618D01*
X184454263Y-95209427D01*
X184441855Y-95250333D01*
X184422251Y-95287009D01*
X184381405Y-95363426D01*
X184300053Y-95462553D01*
X184200926Y-95543905D01*
X184200924Y-95543906D01*
X184087833Y-95604355D01*
X184058104Y-95613373D01*
X183965118Y-95641580D01*
X183901355Y-95647860D01*
X183869474Y-95651000D01*
X183105526Y-95651000D01*
X183073645Y-95647860D01*
X183009882Y-95641580D01*
X182916896Y-95613373D01*
X182887167Y-95604355D01*
X182774076Y-95543906D01*
X182774074Y-95543905D01*
X182674947Y-95462553D01*
X182593595Y-95363426D01*
X182552749Y-95287009D01*
X182533145Y-95250333D01*
X182520737Y-95209427D01*
X182495920Y-95127618D01*
X182483351Y-95000000D01*
X182495920Y-94872382D01*
X182533145Y-94749668D01*
X182533145Y-94749667D01*
X182593594Y-94636576D01*
X182593595Y-94636574D01*
X182674947Y-94537447D01*
X182774074Y-94456095D01*
X182787009Y-94449181D01*
X182887167Y-94395645D01*
X182928073Y-94383237D01*
X183009882Y-94358420D01*
X183073645Y-94352140D01*
X183105526Y-94349000D01*
X183869474Y-94349000D01*
X183901355Y-94352140D01*
X183901355Y-94352140D01*
G37*
G36*
X181013849Y-93253820D02*
X181013852Y-93253821D01*
X181013851Y-93253821D01*
X181155074Y-93312317D01*
X181155075Y-93312318D01*
X181282174Y-93397243D01*
X181390257Y-93505326D01*
X181390259Y-93505329D01*
X181475183Y-93632426D01*
X181520427Y-93741657D01*
X181533680Y-93773651D01*
X181563500Y-93923569D01*
X181563500Y-94076431D01*
X181533680Y-94226349D01*
X181533679Y-94226351D01*
X181475183Y-94367574D01*
X181475182Y-94367575D01*
X181390257Y-94494674D01*
X181282174Y-94602757D01*
X181282171Y-94602759D01*
X181155074Y-94687683D01*
X181045843Y-94732927D01*
X181013849Y-94746180D01*
X180863931Y-94776000D01*
X180711069Y-94776000D01*
X180561151Y-94746180D01*
X180529157Y-94732927D01*
X180419926Y-94687683D01*
X180292829Y-94602759D01*
X180292826Y-94602757D01*
X180184743Y-94494674D01*
X180099818Y-94367575D01*
X180099817Y-94367574D01*
X180041321Y-94226351D01*
X180041320Y-94226349D01*
X180011500Y-94076431D01*
X180011500Y-93923569D01*
X180041320Y-93773651D01*
X180054573Y-93741657D01*
X180099817Y-93632426D01*
X180184741Y-93505329D01*
X180184743Y-93505326D01*
X180292826Y-93397243D01*
X180419925Y-93312318D01*
X180419926Y-93312317D01*
X180561149Y-93253821D01*
X180561148Y-93253821D01*
X180561151Y-93253820D01*
X180711069Y-93224000D01*
X180863931Y-93224000D01*
X181013849Y-93253820D01*
X181013849Y-93253820D01*
G37*
G36*
X123151000Y-94151000D02*
X121349000Y-94151000D01*
X121349000Y-92349000D01*
X123151000Y-92349000D01*
X123151000Y-94151000D01*
X123151000Y-94151000D01*
G37*
G36*
X181013849Y-88253820D02*
X181013852Y-88253821D01*
X181013851Y-88253821D01*
X181155074Y-88312317D01*
X181280456Y-88396095D01*
X181282174Y-88397243D01*
X181390257Y-88505326D01*
X181390259Y-88505329D01*
X181475183Y-88632426D01*
X181520427Y-88741657D01*
X181533680Y-88773651D01*
X181563500Y-88923569D01*
X181563500Y-89076431D01*
X181533680Y-89226349D01*
X181533679Y-89226351D01*
X181475183Y-89367574D01*
X181475182Y-89367575D01*
X181390257Y-89494674D01*
X181282174Y-89602757D01*
X181282171Y-89602759D01*
X181155074Y-89687683D01*
X181045843Y-89732927D01*
X181013849Y-89746180D01*
X180863931Y-89776000D01*
X180711069Y-89776000D01*
X180561151Y-89746180D01*
X180529157Y-89732927D01*
X180419926Y-89687683D01*
X180292829Y-89602759D01*
X180292826Y-89602757D01*
X180184743Y-89494674D01*
X180099818Y-89367575D01*
X180099817Y-89367574D01*
X180041321Y-89226351D01*
X180041320Y-89226349D01*
X180011500Y-89076431D01*
X180011500Y-88923569D01*
X180041320Y-88773651D01*
X180054573Y-88741657D01*
X180099817Y-88632426D01*
X180184741Y-88505329D01*
X180184743Y-88505326D01*
X180292826Y-88397243D01*
X180294544Y-88396095D01*
X180419926Y-88312317D01*
X180561149Y-88253821D01*
X180561148Y-88253821D01*
X180561151Y-88253820D01*
X180711069Y-88224000D01*
X180863931Y-88224000D01*
X181013849Y-88253820D01*
X181013849Y-88253820D01*
G37*
G36*
X183901355Y-87352140D02*
X183965118Y-87358420D01*
X184046927Y-87383237D01*
X184087833Y-87395645D01*
X184187991Y-87449181D01*
X184200926Y-87456095D01*
X184300053Y-87537447D01*
X184381405Y-87636574D01*
X184381406Y-87636576D01*
X184441855Y-87749667D01*
X184441855Y-87749668D01*
X184479080Y-87872382D01*
X184491649Y-88000000D01*
X184479080Y-88127618D01*
X184454263Y-88209427D01*
X184441855Y-88250333D01*
X184408723Y-88312318D01*
X184381405Y-88363426D01*
X184300053Y-88462553D01*
X184200926Y-88543905D01*
X184200924Y-88543906D01*
X184087833Y-88604355D01*
X184046927Y-88616763D01*
X183965118Y-88641580D01*
X183901355Y-88647860D01*
X183869474Y-88651000D01*
X183105526Y-88651000D01*
X183073645Y-88647860D01*
X183009882Y-88641580D01*
X182928073Y-88616763D01*
X182887167Y-88604355D01*
X182774076Y-88543906D01*
X182774074Y-88543905D01*
X182674947Y-88462553D01*
X182593595Y-88363426D01*
X182566277Y-88312318D01*
X182533145Y-88250333D01*
X182520737Y-88209427D01*
X182495920Y-88127618D01*
X182483351Y-88000000D01*
X182495920Y-87872382D01*
X182533145Y-87749668D01*
X182533145Y-87749667D01*
X182593594Y-87636576D01*
X182593595Y-87636574D01*
X182674947Y-87537447D01*
X182774074Y-87456095D01*
X182787009Y-87449181D01*
X182887167Y-87395645D01*
X182928073Y-87383237D01*
X183009882Y-87358420D01*
X183073645Y-87352140D01*
X183105526Y-87349000D01*
X183869474Y-87349000D01*
X183901355Y-87352140D01*
X183901355Y-87352140D01*
G37*
G36*
X124730442Y-83105518D02*
X124796627Y-83112037D01*
X124909853Y-83146384D01*
X124966467Y-83163557D01*
X125105087Y-83237652D01*
X125122991Y-83247222D01*
X125158729Y-83276552D01*
X125260186Y-83359814D01*
X125343448Y-83461271D01*
X125372778Y-83497009D01*
X125372779Y-83497011D01*
X125456443Y-83653533D01*
X125456443Y-83653534D01*
X125507963Y-83823373D01*
X125525359Y-84000000D01*
X125507963Y-84176627D01*
X125473616Y-84289853D01*
X125456443Y-84346467D01*
X125382348Y-84485087D01*
X125372778Y-84502991D01*
X125343448Y-84538729D01*
X125260186Y-84640186D01*
X125158729Y-84723448D01*
X125122991Y-84752778D01*
X125122989Y-84752779D01*
X124966467Y-84836443D01*
X124909853Y-84853616D01*
X124796627Y-84887963D01*
X124730442Y-84894482D01*
X124664260Y-84901000D01*
X124575740Y-84901000D01*
X124509558Y-84894482D01*
X124443373Y-84887963D01*
X124330147Y-84853616D01*
X124273533Y-84836443D01*
X124117011Y-84752779D01*
X124117009Y-84752778D01*
X124081271Y-84723448D01*
X123979814Y-84640186D01*
X123896552Y-84538729D01*
X123867222Y-84502991D01*
X123857652Y-84485087D01*
X123783557Y-84346467D01*
X123766384Y-84289853D01*
X123732037Y-84176627D01*
X123714641Y-84000000D01*
X123732037Y-83823373D01*
X123783557Y-83653534D01*
X123783557Y-83653533D01*
X123867221Y-83497011D01*
X123867222Y-83497009D01*
X123896552Y-83461271D01*
X123979814Y-83359814D01*
X124081271Y-83276552D01*
X124117009Y-83247222D01*
X124134913Y-83237652D01*
X124273533Y-83163557D01*
X124330147Y-83146384D01*
X124443373Y-83112037D01*
X124509558Y-83105518D01*
X124575740Y-83099000D01*
X124664260Y-83099000D01*
X124730442Y-83105518D01*
X124730442Y-83105518D01*
G37*
G36*
X97901000Y-84901000D02*
X96099000Y-84901000D01*
X96099000Y-83099000D01*
X97901000Y-83099000D01*
X97901000Y-84901000D01*
X97901000Y-84901000D01*
G37*
G36*
X138821000Y-84901000D02*
X137019000Y-84901000D01*
X137019000Y-83099000D01*
X138821000Y-83099000D01*
X138821000Y-84901000D01*
X138821000Y-84901000D01*
G37*
G36*
X140570442Y-83105518D02*
X140636627Y-83112037D01*
X140749853Y-83146384D01*
X140806467Y-83163557D01*
X140945087Y-83237652D01*
X140962991Y-83247222D01*
X140998729Y-83276552D01*
X141100186Y-83359814D01*
X141183448Y-83461271D01*
X141212778Y-83497009D01*
X141212779Y-83497011D01*
X141296443Y-83653533D01*
X141296443Y-83653534D01*
X141347963Y-83823373D01*
X141365359Y-84000000D01*
X141347963Y-84176627D01*
X141313616Y-84289853D01*
X141296443Y-84346467D01*
X141222348Y-84485087D01*
X141212778Y-84502991D01*
X141183448Y-84538729D01*
X141100186Y-84640186D01*
X140998729Y-84723448D01*
X140962991Y-84752778D01*
X140962989Y-84752779D01*
X140806467Y-84836443D01*
X140749853Y-84853616D01*
X140636627Y-84887963D01*
X140570442Y-84894482D01*
X140504260Y-84901000D01*
X140415740Y-84901000D01*
X140349558Y-84894482D01*
X140283373Y-84887963D01*
X140170147Y-84853616D01*
X140113533Y-84836443D01*
X139957011Y-84752779D01*
X139957009Y-84752778D01*
X139921271Y-84723448D01*
X139819814Y-84640186D01*
X139736552Y-84538729D01*
X139707222Y-84502991D01*
X139697652Y-84485087D01*
X139623557Y-84346467D01*
X139606384Y-84289853D01*
X139572037Y-84176627D01*
X139554641Y-84000000D01*
X139572037Y-83823373D01*
X139623557Y-83653534D01*
X139623557Y-83653533D01*
X139707221Y-83497011D01*
X139707222Y-83497009D01*
X139736552Y-83461271D01*
X139819814Y-83359814D01*
X139921271Y-83276552D01*
X139957009Y-83247222D01*
X139974913Y-83237652D01*
X140113533Y-83163557D01*
X140170147Y-83146384D01*
X140283373Y-83112037D01*
X140349558Y-83105518D01*
X140415740Y-83099000D01*
X140504260Y-83099000D01*
X140570442Y-83105518D01*
X140570442Y-83105518D01*
G37*
G36*
X143110442Y-83105518D02*
X143176627Y-83112037D01*
X143289853Y-83146384D01*
X143346467Y-83163557D01*
X143485087Y-83237652D01*
X143502991Y-83247222D01*
X143538729Y-83276552D01*
X143640186Y-83359814D01*
X143723448Y-83461271D01*
X143752778Y-83497009D01*
X143752779Y-83497011D01*
X143836443Y-83653533D01*
X143836443Y-83653534D01*
X143887963Y-83823373D01*
X143905359Y-84000000D01*
X143887963Y-84176627D01*
X143853616Y-84289853D01*
X143836443Y-84346467D01*
X143762348Y-84485087D01*
X143752778Y-84502991D01*
X143723448Y-84538729D01*
X143640186Y-84640186D01*
X143538729Y-84723448D01*
X143502991Y-84752778D01*
X143502989Y-84752779D01*
X143346467Y-84836443D01*
X143289853Y-84853616D01*
X143176627Y-84887963D01*
X143110442Y-84894482D01*
X143044260Y-84901000D01*
X142955740Y-84901000D01*
X142889558Y-84894482D01*
X142823373Y-84887963D01*
X142710147Y-84853616D01*
X142653533Y-84836443D01*
X142497011Y-84752779D01*
X142497009Y-84752778D01*
X142461271Y-84723448D01*
X142359814Y-84640186D01*
X142276552Y-84538729D01*
X142247222Y-84502991D01*
X142237652Y-84485087D01*
X142163557Y-84346467D01*
X142146384Y-84289853D01*
X142112037Y-84176627D01*
X142094641Y-84000000D01*
X142112037Y-83823373D01*
X142163557Y-83653534D01*
X142163557Y-83653533D01*
X142247221Y-83497011D01*
X142247222Y-83497009D01*
X142276552Y-83461271D01*
X142359814Y-83359814D01*
X142461271Y-83276552D01*
X142497009Y-83247222D01*
X142514913Y-83237652D01*
X142653533Y-83163557D01*
X142710147Y-83146384D01*
X142823373Y-83112037D01*
X142889558Y-83105518D01*
X142955740Y-83099000D01*
X143044260Y-83099000D01*
X143110442Y-83105518D01*
X143110442Y-83105518D01*
G37*
G36*
X145650442Y-83105518D02*
X145716627Y-83112037D01*
X145829853Y-83146384D01*
X145886467Y-83163557D01*
X146025087Y-83237652D01*
X146042991Y-83247222D01*
X146078729Y-83276552D01*
X146180186Y-83359814D01*
X146263448Y-83461271D01*
X146292778Y-83497009D01*
X146292779Y-83497011D01*
X146376443Y-83653533D01*
X146376443Y-83653534D01*
X146427963Y-83823373D01*
X146445359Y-84000000D01*
X146427963Y-84176627D01*
X146393616Y-84289853D01*
X146376443Y-84346467D01*
X146302348Y-84485087D01*
X146292778Y-84502991D01*
X146263448Y-84538729D01*
X146180186Y-84640186D01*
X146078729Y-84723448D01*
X146042991Y-84752778D01*
X146042989Y-84752779D01*
X145886467Y-84836443D01*
X145829853Y-84853616D01*
X145716627Y-84887963D01*
X145650442Y-84894482D01*
X145584260Y-84901000D01*
X145495740Y-84901000D01*
X145429558Y-84894482D01*
X145363373Y-84887963D01*
X145250147Y-84853616D01*
X145193533Y-84836443D01*
X145037011Y-84752779D01*
X145037009Y-84752778D01*
X145001271Y-84723448D01*
X144899814Y-84640186D01*
X144816552Y-84538729D01*
X144787222Y-84502991D01*
X144777652Y-84485087D01*
X144703557Y-84346467D01*
X144686384Y-84289853D01*
X144652037Y-84176627D01*
X144634641Y-84000000D01*
X144652037Y-83823373D01*
X144703557Y-83653534D01*
X144703557Y-83653533D01*
X144787221Y-83497011D01*
X144787222Y-83497009D01*
X144816552Y-83461271D01*
X144899814Y-83359814D01*
X145001271Y-83276552D01*
X145037009Y-83247222D01*
X145054913Y-83237652D01*
X145193533Y-83163557D01*
X145250147Y-83146384D01*
X145363373Y-83112037D01*
X145429558Y-83105518D01*
X145495740Y-83099000D01*
X145584260Y-83099000D01*
X145650442Y-83105518D01*
X145650442Y-83105518D01*
G37*
G36*
X99650442Y-83105518D02*
X99716627Y-83112037D01*
X99829853Y-83146384D01*
X99886467Y-83163557D01*
X100025087Y-83237652D01*
X100042991Y-83247222D01*
X100078729Y-83276552D01*
X100180186Y-83359814D01*
X100263448Y-83461271D01*
X100292778Y-83497009D01*
X100292779Y-83497011D01*
X100376443Y-83653533D01*
X100376443Y-83653534D01*
X100427963Y-83823373D01*
X100445359Y-84000000D01*
X100427963Y-84176627D01*
X100393616Y-84289853D01*
X100376443Y-84346467D01*
X100302348Y-84485087D01*
X100292778Y-84502991D01*
X100263448Y-84538729D01*
X100180186Y-84640186D01*
X100078729Y-84723448D01*
X100042991Y-84752778D01*
X100042989Y-84752779D01*
X99886467Y-84836443D01*
X99829853Y-84853616D01*
X99716627Y-84887963D01*
X99650442Y-84894482D01*
X99584260Y-84901000D01*
X99495740Y-84901000D01*
X99429558Y-84894482D01*
X99363373Y-84887963D01*
X99250147Y-84853616D01*
X99193533Y-84836443D01*
X99037011Y-84752779D01*
X99037009Y-84752778D01*
X99001271Y-84723448D01*
X98899814Y-84640186D01*
X98816552Y-84538729D01*
X98787222Y-84502991D01*
X98777652Y-84485087D01*
X98703557Y-84346467D01*
X98686384Y-84289853D01*
X98652037Y-84176627D01*
X98634641Y-84000000D01*
X98652037Y-83823373D01*
X98703557Y-83653534D01*
X98703557Y-83653533D01*
X98787221Y-83497011D01*
X98787222Y-83497009D01*
X98816552Y-83461271D01*
X98899814Y-83359814D01*
X99001271Y-83276552D01*
X99037009Y-83247222D01*
X99054913Y-83237652D01*
X99193533Y-83163557D01*
X99250147Y-83146384D01*
X99363373Y-83112037D01*
X99429558Y-83105518D01*
X99495740Y-83099000D01*
X99584260Y-83099000D01*
X99650442Y-83105518D01*
X99650442Y-83105518D01*
G37*
G36*
X102190442Y-83105518D02*
X102256627Y-83112037D01*
X102369853Y-83146384D01*
X102426467Y-83163557D01*
X102565087Y-83237652D01*
X102582991Y-83247222D01*
X102618729Y-83276552D01*
X102720186Y-83359814D01*
X102803448Y-83461271D01*
X102832778Y-83497009D01*
X102832779Y-83497011D01*
X102916443Y-83653533D01*
X102916443Y-83653534D01*
X102967963Y-83823373D01*
X102985359Y-84000000D01*
X102967963Y-84176627D01*
X102933616Y-84289853D01*
X102916443Y-84346467D01*
X102842348Y-84485087D01*
X102832778Y-84502991D01*
X102803448Y-84538729D01*
X102720186Y-84640186D01*
X102618729Y-84723448D01*
X102582991Y-84752778D01*
X102582989Y-84752779D01*
X102426467Y-84836443D01*
X102369853Y-84853616D01*
X102256627Y-84887963D01*
X102190442Y-84894482D01*
X102124260Y-84901000D01*
X102035740Y-84901000D01*
X101969558Y-84894482D01*
X101903373Y-84887963D01*
X101790147Y-84853616D01*
X101733533Y-84836443D01*
X101577011Y-84752779D01*
X101577009Y-84752778D01*
X101541271Y-84723448D01*
X101439814Y-84640186D01*
X101356552Y-84538729D01*
X101327222Y-84502991D01*
X101317652Y-84485087D01*
X101243557Y-84346467D01*
X101226384Y-84289853D01*
X101192037Y-84176627D01*
X101174641Y-84000000D01*
X101192037Y-83823373D01*
X101243557Y-83653534D01*
X101243557Y-83653533D01*
X101327221Y-83497011D01*
X101327222Y-83497009D01*
X101356552Y-83461271D01*
X101439814Y-83359814D01*
X101541271Y-83276552D01*
X101577009Y-83247222D01*
X101594913Y-83237652D01*
X101733533Y-83163557D01*
X101790147Y-83146384D01*
X101903373Y-83112037D01*
X101969558Y-83105518D01*
X102035740Y-83099000D01*
X102124260Y-83099000D01*
X102190442Y-83105518D01*
X102190442Y-83105518D01*
G37*
G36*
X158821000Y-84901000D02*
X157019000Y-84901000D01*
X157019000Y-83099000D01*
X158821000Y-83099000D01*
X158821000Y-84901000D01*
X158821000Y-84901000D01*
G37*
G36*
X160570442Y-83105518D02*
X160636627Y-83112037D01*
X160749853Y-83146384D01*
X160806467Y-83163557D01*
X160945087Y-83237652D01*
X160962991Y-83247222D01*
X160998729Y-83276552D01*
X161100186Y-83359814D01*
X161183448Y-83461271D01*
X161212778Y-83497009D01*
X161212779Y-83497011D01*
X161296443Y-83653533D01*
X161296443Y-83653534D01*
X161347963Y-83823373D01*
X161365359Y-84000000D01*
X161347963Y-84176627D01*
X161313616Y-84289853D01*
X161296443Y-84346467D01*
X161222348Y-84485087D01*
X161212778Y-84502991D01*
X161183448Y-84538729D01*
X161100186Y-84640186D01*
X160998729Y-84723448D01*
X160962991Y-84752778D01*
X160962989Y-84752779D01*
X160806467Y-84836443D01*
X160749853Y-84853616D01*
X160636627Y-84887963D01*
X160570442Y-84894482D01*
X160504260Y-84901000D01*
X160415740Y-84901000D01*
X160349558Y-84894482D01*
X160283373Y-84887963D01*
X160170147Y-84853616D01*
X160113533Y-84836443D01*
X159957011Y-84752779D01*
X159957009Y-84752778D01*
X159921271Y-84723448D01*
X159819814Y-84640186D01*
X159736552Y-84538729D01*
X159707222Y-84502991D01*
X159697652Y-84485087D01*
X159623557Y-84346467D01*
X159606384Y-84289853D01*
X159572037Y-84176627D01*
X159554641Y-84000000D01*
X159572037Y-83823373D01*
X159623557Y-83653534D01*
X159623557Y-83653533D01*
X159707221Y-83497011D01*
X159707222Y-83497009D01*
X159736552Y-83461271D01*
X159819814Y-83359814D01*
X159921271Y-83276552D01*
X159957009Y-83247222D01*
X159974913Y-83237652D01*
X160113533Y-83163557D01*
X160170147Y-83146384D01*
X160283373Y-83112037D01*
X160349558Y-83105518D01*
X160415740Y-83099000D01*
X160504260Y-83099000D01*
X160570442Y-83105518D01*
X160570442Y-83105518D01*
G37*
G36*
X163110442Y-83105518D02*
X163176627Y-83112037D01*
X163289853Y-83146384D01*
X163346467Y-83163557D01*
X163485087Y-83237652D01*
X163502991Y-83247222D01*
X163538729Y-83276552D01*
X163640186Y-83359814D01*
X163723448Y-83461271D01*
X163752778Y-83497009D01*
X163752779Y-83497011D01*
X163836443Y-83653533D01*
X163836443Y-83653534D01*
X163887963Y-83823373D01*
X163905359Y-84000000D01*
X163887963Y-84176627D01*
X163853616Y-84289853D01*
X163836443Y-84346467D01*
X163762348Y-84485087D01*
X163752778Y-84502991D01*
X163723448Y-84538729D01*
X163640186Y-84640186D01*
X163538729Y-84723448D01*
X163502991Y-84752778D01*
X163502989Y-84752779D01*
X163346467Y-84836443D01*
X163289853Y-84853616D01*
X163176627Y-84887963D01*
X163110442Y-84894482D01*
X163044260Y-84901000D01*
X162955740Y-84901000D01*
X162889558Y-84894482D01*
X162823373Y-84887963D01*
X162710147Y-84853616D01*
X162653533Y-84836443D01*
X162497011Y-84752779D01*
X162497009Y-84752778D01*
X162461271Y-84723448D01*
X162359814Y-84640186D01*
X162276552Y-84538729D01*
X162247222Y-84502991D01*
X162237652Y-84485087D01*
X162163557Y-84346467D01*
X162146384Y-84289853D01*
X162112037Y-84176627D01*
X162094641Y-84000000D01*
X162112037Y-83823373D01*
X162163557Y-83653534D01*
X162163557Y-83653533D01*
X162247221Y-83497011D01*
X162247222Y-83497009D01*
X162276552Y-83461271D01*
X162359814Y-83359814D01*
X162461271Y-83276552D01*
X162497009Y-83247222D01*
X162514913Y-83237652D01*
X162653533Y-83163557D01*
X162710147Y-83146384D01*
X162823373Y-83112037D01*
X162889558Y-83105518D01*
X162955740Y-83099000D01*
X163044260Y-83099000D01*
X163110442Y-83105518D01*
X163110442Y-83105518D01*
G37*
G36*
X165650442Y-83105518D02*
X165716627Y-83112037D01*
X165829853Y-83146384D01*
X165886467Y-83163557D01*
X166025087Y-83237652D01*
X166042991Y-83247222D01*
X166078729Y-83276552D01*
X166180186Y-83359814D01*
X166263448Y-83461271D01*
X166292778Y-83497009D01*
X166292779Y-83497011D01*
X166376443Y-83653533D01*
X166376443Y-83653534D01*
X166427963Y-83823373D01*
X166445359Y-84000000D01*
X166427963Y-84176627D01*
X166393616Y-84289853D01*
X166376443Y-84346467D01*
X166302348Y-84485087D01*
X166292778Y-84502991D01*
X166263448Y-84538729D01*
X166180186Y-84640186D01*
X166078729Y-84723448D01*
X166042991Y-84752778D01*
X166042989Y-84752779D01*
X165886467Y-84836443D01*
X165829853Y-84853616D01*
X165716627Y-84887963D01*
X165650442Y-84894482D01*
X165584260Y-84901000D01*
X165495740Y-84901000D01*
X165429558Y-84894482D01*
X165363373Y-84887963D01*
X165250147Y-84853616D01*
X165193533Y-84836443D01*
X165037011Y-84752779D01*
X165037009Y-84752778D01*
X165001271Y-84723448D01*
X164899814Y-84640186D01*
X164816552Y-84538729D01*
X164787222Y-84502991D01*
X164777652Y-84485087D01*
X164703557Y-84346467D01*
X164686384Y-84289853D01*
X164652037Y-84176627D01*
X164634641Y-84000000D01*
X164652037Y-83823373D01*
X164703557Y-83653534D01*
X164703557Y-83653533D01*
X164787221Y-83497011D01*
X164787222Y-83497009D01*
X164816552Y-83461271D01*
X164899814Y-83359814D01*
X165001271Y-83276552D01*
X165037009Y-83247222D01*
X165054913Y-83237652D01*
X165193533Y-83163557D01*
X165250147Y-83146384D01*
X165363373Y-83112037D01*
X165429558Y-83105518D01*
X165495740Y-83099000D01*
X165584260Y-83099000D01*
X165650442Y-83105518D01*
X165650442Y-83105518D01*
G37*
G36*
X119650442Y-83105518D02*
X119716627Y-83112037D01*
X119829853Y-83146384D01*
X119886467Y-83163557D01*
X120025087Y-83237652D01*
X120042991Y-83247222D01*
X120078729Y-83276552D01*
X120180186Y-83359814D01*
X120263448Y-83461271D01*
X120292778Y-83497009D01*
X120292779Y-83497011D01*
X120376443Y-83653533D01*
X120376443Y-83653534D01*
X120427963Y-83823373D01*
X120445359Y-84000000D01*
X120427963Y-84176627D01*
X120393616Y-84289853D01*
X120376443Y-84346467D01*
X120302348Y-84485087D01*
X120292778Y-84502991D01*
X120263448Y-84538729D01*
X120180186Y-84640186D01*
X120078729Y-84723448D01*
X120042991Y-84752778D01*
X120042989Y-84752779D01*
X119886467Y-84836443D01*
X119829853Y-84853616D01*
X119716627Y-84887963D01*
X119650442Y-84894482D01*
X119584260Y-84901000D01*
X119495740Y-84901000D01*
X119429558Y-84894482D01*
X119363373Y-84887963D01*
X119250147Y-84853616D01*
X119193533Y-84836443D01*
X119037011Y-84752779D01*
X119037009Y-84752778D01*
X119001271Y-84723448D01*
X118899814Y-84640186D01*
X118816552Y-84538729D01*
X118787222Y-84502991D01*
X118777652Y-84485087D01*
X118703557Y-84346467D01*
X118686384Y-84289853D01*
X118652037Y-84176627D01*
X118634641Y-84000000D01*
X118652037Y-83823373D01*
X118703557Y-83653534D01*
X118703557Y-83653533D01*
X118787221Y-83497011D01*
X118787222Y-83497009D01*
X118816552Y-83461271D01*
X118899814Y-83359814D01*
X119001271Y-83276552D01*
X119037009Y-83247222D01*
X119054913Y-83237652D01*
X119193533Y-83163557D01*
X119250147Y-83146384D01*
X119363373Y-83112037D01*
X119429558Y-83105518D01*
X119495740Y-83099000D01*
X119584260Y-83099000D01*
X119650442Y-83105518D01*
X119650442Y-83105518D01*
G37*
G36*
X122190442Y-83105518D02*
X122256627Y-83112037D01*
X122369853Y-83146384D01*
X122426467Y-83163557D01*
X122565087Y-83237652D01*
X122582991Y-83247222D01*
X122618729Y-83276552D01*
X122720186Y-83359814D01*
X122803448Y-83461271D01*
X122832778Y-83497009D01*
X122832779Y-83497011D01*
X122916443Y-83653533D01*
X122916443Y-83653534D01*
X122967963Y-83823373D01*
X122985359Y-84000000D01*
X122967963Y-84176627D01*
X122933616Y-84289853D01*
X122916443Y-84346467D01*
X122842348Y-84485087D01*
X122832778Y-84502991D01*
X122803448Y-84538729D01*
X122720186Y-84640186D01*
X122618729Y-84723448D01*
X122582991Y-84752778D01*
X122582989Y-84752779D01*
X122426467Y-84836443D01*
X122369853Y-84853616D01*
X122256627Y-84887963D01*
X122190442Y-84894482D01*
X122124260Y-84901000D01*
X122035740Y-84901000D01*
X121969558Y-84894482D01*
X121903373Y-84887963D01*
X121790147Y-84853616D01*
X121733533Y-84836443D01*
X121577011Y-84752779D01*
X121577009Y-84752778D01*
X121541271Y-84723448D01*
X121439814Y-84640186D01*
X121356552Y-84538729D01*
X121327222Y-84502991D01*
X121317652Y-84485087D01*
X121243557Y-84346467D01*
X121226384Y-84289853D01*
X121192037Y-84176627D01*
X121174641Y-84000000D01*
X121192037Y-83823373D01*
X121243557Y-83653534D01*
X121243557Y-83653533D01*
X121327221Y-83497011D01*
X121327222Y-83497009D01*
X121356552Y-83461271D01*
X121439814Y-83359814D01*
X121541271Y-83276552D01*
X121577009Y-83247222D01*
X121594913Y-83237652D01*
X121733533Y-83163557D01*
X121790147Y-83146384D01*
X121903373Y-83112037D01*
X121969558Y-83105518D01*
X122035740Y-83099000D01*
X122124260Y-83099000D01*
X122190442Y-83105518D01*
X122190442Y-83105518D01*
G37*
G36*
X117901000Y-84901000D02*
X116099000Y-84901000D01*
X116099000Y-83099000D01*
X117901000Y-83099000D01*
X117901000Y-84901000D01*
X117901000Y-84901000D01*
G37*
G36*
X104730442Y-83105518D02*
X104796627Y-83112037D01*
X104909853Y-83146384D01*
X104966467Y-83163557D01*
X105105087Y-83237652D01*
X105122991Y-83247222D01*
X105158729Y-83276552D01*
X105260186Y-83359814D01*
X105343448Y-83461271D01*
X105372778Y-83497009D01*
X105372779Y-83497011D01*
X105456443Y-83653533D01*
X105456443Y-83653534D01*
X105507963Y-83823373D01*
X105525359Y-84000000D01*
X105507963Y-84176627D01*
X105473616Y-84289853D01*
X105456443Y-84346467D01*
X105382348Y-84485087D01*
X105372778Y-84502991D01*
X105343448Y-84538729D01*
X105260186Y-84640186D01*
X105158729Y-84723448D01*
X105122991Y-84752778D01*
X105122989Y-84752779D01*
X104966467Y-84836443D01*
X104909853Y-84853616D01*
X104796627Y-84887963D01*
X104730442Y-84894482D01*
X104664260Y-84901000D01*
X104575740Y-84901000D01*
X104509558Y-84894482D01*
X104443373Y-84887963D01*
X104330147Y-84853616D01*
X104273533Y-84836443D01*
X104117011Y-84752779D01*
X104117009Y-84752778D01*
X104081271Y-84723448D01*
X103979814Y-84640186D01*
X103896552Y-84538729D01*
X103867222Y-84502991D01*
X103857652Y-84485087D01*
X103783557Y-84346467D01*
X103766384Y-84289853D01*
X103732037Y-84176627D01*
X103714641Y-84000000D01*
X103732037Y-83823373D01*
X103783557Y-83653534D01*
X103783557Y-83653533D01*
X103867221Y-83497011D01*
X103867222Y-83497009D01*
X103896552Y-83461271D01*
X103979814Y-83359814D01*
X104081271Y-83276552D01*
X104117009Y-83247222D01*
X104134913Y-83237652D01*
X104273533Y-83163557D01*
X104330147Y-83146384D01*
X104443373Y-83112037D01*
X104509558Y-83105518D01*
X104575740Y-83099000D01*
X104664260Y-83099000D01*
X104730442Y-83105518D01*
X104730442Y-83105518D01*
G37*
G36*
X179801000Y-71051000D02*
X177199000Y-71051000D01*
X177199000Y-68449000D01*
X179801000Y-68449000D01*
X179801000Y-71051000D01*
X179801000Y-71051000D01*
G37*
G36*
X178879485Y-63418996D02*
X178879487Y-63418997D01*
X178879488Y-63418997D01*
X179116255Y-63517069D01*
X179329342Y-63659449D01*
X179510551Y-63840658D01*
X179652931Y-64053745D01*
X179751004Y-64290515D01*
X179801000Y-64541861D01*
X179801000Y-64798139D01*
X179751004Y-65049485D01*
X179652931Y-65286255D01*
X179510551Y-65499342D01*
X179329342Y-65680551D01*
X179329339Y-65680553D01*
X179116255Y-65822931D01*
X178879488Y-65921003D01*
X178879487Y-65921003D01*
X178879485Y-65921004D01*
X178628139Y-65971000D01*
X178371861Y-65971000D01*
X178120515Y-65921004D01*
X178120513Y-65921003D01*
X178120512Y-65921003D01*
X177883745Y-65822931D01*
X177670661Y-65680553D01*
X177670658Y-65680551D01*
X177489449Y-65499342D01*
X177347069Y-65286255D01*
X177248996Y-65049485D01*
X177199000Y-64798139D01*
X177199000Y-64541861D01*
X177248996Y-64290515D01*
X177347069Y-64053745D01*
X177489449Y-63840658D01*
X177670658Y-63659449D01*
X177883745Y-63517069D01*
X178120512Y-63418997D01*
X178120513Y-63418997D01*
X178120515Y-63418996D01*
X178371861Y-63369000D01*
X178628139Y-63369000D01*
X178879485Y-63418996D01*
X178879485Y-63418996D01*
G37*
G36*
X140570443Y-52105519D02*
X140636627Y-52112037D01*
X140749853Y-52146384D01*
X140806467Y-52163557D01*
X140945087Y-52237652D01*
X140962991Y-52247222D01*
X140998729Y-52276552D01*
X141100186Y-52359814D01*
X141183448Y-52461271D01*
X141212778Y-52497009D01*
X141212779Y-52497011D01*
X141296443Y-52653533D01*
X141296443Y-52653534D01*
X141347963Y-52823373D01*
X141365359Y-53000000D01*
X141347963Y-53176627D01*
X141313616Y-53289853D01*
X141296443Y-53346467D01*
X141222348Y-53485087D01*
X141212778Y-53502991D01*
X141183448Y-53538729D01*
X141100186Y-53640186D01*
X140998729Y-53723448D01*
X140962991Y-53752778D01*
X140962989Y-53752779D01*
X140806467Y-53836443D01*
X140749853Y-53853616D01*
X140636627Y-53887963D01*
X140570442Y-53894482D01*
X140504260Y-53901000D01*
X140415740Y-53901000D01*
X140349558Y-53894482D01*
X140283373Y-53887963D01*
X140170147Y-53853616D01*
X140113533Y-53836443D01*
X139957011Y-53752779D01*
X139957009Y-53752778D01*
X139921271Y-53723448D01*
X139819814Y-53640186D01*
X139736552Y-53538729D01*
X139707222Y-53502991D01*
X139697652Y-53485087D01*
X139623557Y-53346467D01*
X139606384Y-53289853D01*
X139572037Y-53176627D01*
X139554641Y-53000000D01*
X139572037Y-52823373D01*
X139623557Y-52653534D01*
X139623557Y-52653533D01*
X139707221Y-52497011D01*
X139707222Y-52497009D01*
X139736552Y-52461271D01*
X139819814Y-52359814D01*
X139921271Y-52276552D01*
X139957009Y-52247222D01*
X139974913Y-52237652D01*
X140113533Y-52163557D01*
X140170147Y-52146384D01*
X140283373Y-52112037D01*
X140349557Y-52105519D01*
X140415740Y-52099000D01*
X140504260Y-52099000D01*
X140570443Y-52105519D01*
X140570443Y-52105519D01*
G37*
G36*
X138821000Y-53901000D02*
X137019000Y-53901000D01*
X137019000Y-52099000D01*
X138821000Y-52099000D01*
X138821000Y-53901000D01*
X138821000Y-53901000D01*
G37*
G36*
X143110443Y-52105519D02*
X143176627Y-52112037D01*
X143289853Y-52146384D01*
X143346467Y-52163557D01*
X143485087Y-52237652D01*
X143502991Y-52247222D01*
X143538729Y-52276552D01*
X143640186Y-52359814D01*
X143723448Y-52461271D01*
X143752778Y-52497009D01*
X143752779Y-52497011D01*
X143836443Y-52653533D01*
X143836443Y-52653534D01*
X143887963Y-52823373D01*
X143905359Y-53000000D01*
X143887963Y-53176627D01*
X143853616Y-53289853D01*
X143836443Y-53346467D01*
X143762348Y-53485087D01*
X143752778Y-53502991D01*
X143723448Y-53538729D01*
X143640186Y-53640186D01*
X143538729Y-53723448D01*
X143502991Y-53752778D01*
X143502989Y-53752779D01*
X143346467Y-53836443D01*
X143289853Y-53853616D01*
X143176627Y-53887963D01*
X143110442Y-53894482D01*
X143044260Y-53901000D01*
X142955740Y-53901000D01*
X142889558Y-53894482D01*
X142823373Y-53887963D01*
X142710147Y-53853616D01*
X142653533Y-53836443D01*
X142497011Y-53752779D01*
X142497009Y-53752778D01*
X142461271Y-53723448D01*
X142359814Y-53640186D01*
X142276552Y-53538729D01*
X142247222Y-53502991D01*
X142237652Y-53485087D01*
X142163557Y-53346467D01*
X142146384Y-53289853D01*
X142112037Y-53176627D01*
X142094641Y-53000000D01*
X142112037Y-52823373D01*
X142163557Y-52653534D01*
X142163557Y-52653533D01*
X142247221Y-52497011D01*
X142247222Y-52497009D01*
X142276552Y-52461271D01*
X142359814Y-52359814D01*
X142461271Y-52276552D01*
X142497009Y-52247222D01*
X142514913Y-52237652D01*
X142653533Y-52163557D01*
X142710147Y-52146384D01*
X142823373Y-52112037D01*
X142889557Y-52105519D01*
X142955740Y-52099000D01*
X143044260Y-52099000D01*
X143110443Y-52105519D01*
X143110443Y-52105519D01*
G37*
G36*
X125110443Y-52105519D02*
X125176627Y-52112037D01*
X125289853Y-52146384D01*
X125346467Y-52163557D01*
X125485087Y-52237652D01*
X125502991Y-52247222D01*
X125538729Y-52276552D01*
X125640186Y-52359814D01*
X125723448Y-52461271D01*
X125752778Y-52497009D01*
X125752779Y-52497011D01*
X125836443Y-52653533D01*
X125836443Y-52653534D01*
X125887963Y-52823373D01*
X125905359Y-53000000D01*
X125887963Y-53176627D01*
X125853616Y-53289853D01*
X125836443Y-53346467D01*
X125762348Y-53485087D01*
X125752778Y-53502991D01*
X125723448Y-53538729D01*
X125640186Y-53640186D01*
X125538729Y-53723448D01*
X125502991Y-53752778D01*
X125502989Y-53752779D01*
X125346467Y-53836443D01*
X125289853Y-53853616D01*
X125176627Y-53887963D01*
X125110442Y-53894482D01*
X125044260Y-53901000D01*
X124955740Y-53901000D01*
X124889558Y-53894482D01*
X124823373Y-53887963D01*
X124710147Y-53853616D01*
X124653533Y-53836443D01*
X124497011Y-53752779D01*
X124497009Y-53752778D01*
X124461271Y-53723448D01*
X124359814Y-53640186D01*
X124276552Y-53538729D01*
X124247222Y-53502991D01*
X124237652Y-53485087D01*
X124163557Y-53346467D01*
X124146384Y-53289853D01*
X124112037Y-53176627D01*
X124094641Y-53000000D01*
X124112037Y-52823373D01*
X124163557Y-52653534D01*
X124163557Y-52653533D01*
X124247221Y-52497011D01*
X124247222Y-52497009D01*
X124276552Y-52461271D01*
X124359814Y-52359814D01*
X124461271Y-52276552D01*
X124497009Y-52247222D01*
X124514913Y-52237652D01*
X124653533Y-52163557D01*
X124710147Y-52146384D01*
X124823373Y-52112037D01*
X124889557Y-52105519D01*
X124955740Y-52099000D01*
X125044260Y-52099000D01*
X125110443Y-52105519D01*
X125110443Y-52105519D01*
G37*
G36*
X122570443Y-52105519D02*
X122636627Y-52112037D01*
X122749853Y-52146384D01*
X122806467Y-52163557D01*
X122945087Y-52237652D01*
X122962991Y-52247222D01*
X122998729Y-52276552D01*
X123100186Y-52359814D01*
X123183448Y-52461271D01*
X123212778Y-52497009D01*
X123212779Y-52497011D01*
X123296443Y-52653533D01*
X123296443Y-52653534D01*
X123347963Y-52823373D01*
X123365359Y-53000000D01*
X123347963Y-53176627D01*
X123313616Y-53289853D01*
X123296443Y-53346467D01*
X123222348Y-53485087D01*
X123212778Y-53502991D01*
X123183448Y-53538729D01*
X123100186Y-53640186D01*
X122998729Y-53723448D01*
X122962991Y-53752778D01*
X122962989Y-53752779D01*
X122806467Y-53836443D01*
X122749853Y-53853616D01*
X122636627Y-53887963D01*
X122570442Y-53894482D01*
X122504260Y-53901000D01*
X122415740Y-53901000D01*
X122349558Y-53894482D01*
X122283373Y-53887963D01*
X122170147Y-53853616D01*
X122113533Y-53836443D01*
X121957011Y-53752779D01*
X121957009Y-53752778D01*
X121921271Y-53723448D01*
X121819814Y-53640186D01*
X121736552Y-53538729D01*
X121707222Y-53502991D01*
X121697652Y-53485087D01*
X121623557Y-53346467D01*
X121606384Y-53289853D01*
X121572037Y-53176627D01*
X121554641Y-53000000D01*
X121572037Y-52823373D01*
X121623557Y-52653534D01*
X121623557Y-52653533D01*
X121707221Y-52497011D01*
X121707222Y-52497009D01*
X121736552Y-52461271D01*
X121819814Y-52359814D01*
X121921271Y-52276552D01*
X121957009Y-52247222D01*
X121974913Y-52237652D01*
X122113533Y-52163557D01*
X122170147Y-52146384D01*
X122283373Y-52112037D01*
X122349557Y-52105519D01*
X122415740Y-52099000D01*
X122504260Y-52099000D01*
X122570443Y-52105519D01*
X122570443Y-52105519D01*
G37*
G36*
X120030443Y-52105519D02*
X120096627Y-52112037D01*
X120209853Y-52146384D01*
X120266467Y-52163557D01*
X120405087Y-52237652D01*
X120422991Y-52247222D01*
X120458729Y-52276552D01*
X120560186Y-52359814D01*
X120643448Y-52461271D01*
X120672778Y-52497009D01*
X120672779Y-52497011D01*
X120756443Y-52653533D01*
X120756443Y-52653534D01*
X120807963Y-52823373D01*
X120825359Y-53000000D01*
X120807963Y-53176627D01*
X120773616Y-53289853D01*
X120756443Y-53346467D01*
X120682348Y-53485087D01*
X120672778Y-53502991D01*
X120643448Y-53538729D01*
X120560186Y-53640186D01*
X120458729Y-53723448D01*
X120422991Y-53752778D01*
X120422989Y-53752779D01*
X120266467Y-53836443D01*
X120209853Y-53853616D01*
X120096627Y-53887963D01*
X120030442Y-53894482D01*
X119964260Y-53901000D01*
X119875740Y-53901000D01*
X119809558Y-53894482D01*
X119743373Y-53887963D01*
X119630147Y-53853616D01*
X119573533Y-53836443D01*
X119417011Y-53752779D01*
X119417009Y-53752778D01*
X119381271Y-53723448D01*
X119279814Y-53640186D01*
X119196552Y-53538729D01*
X119167222Y-53502991D01*
X119157652Y-53485087D01*
X119083557Y-53346467D01*
X119066384Y-53289853D01*
X119032037Y-53176627D01*
X119014641Y-53000000D01*
X119032037Y-52823373D01*
X119083557Y-52653534D01*
X119083557Y-52653533D01*
X119167221Y-52497011D01*
X119167222Y-52497009D01*
X119196552Y-52461271D01*
X119279814Y-52359814D01*
X119381271Y-52276552D01*
X119417009Y-52247222D01*
X119434913Y-52237652D01*
X119573533Y-52163557D01*
X119630147Y-52146384D01*
X119743373Y-52112037D01*
X119809557Y-52105519D01*
X119875740Y-52099000D01*
X119964260Y-52099000D01*
X120030443Y-52105519D01*
X120030443Y-52105519D01*
G37*
G36*
X118281000Y-53901000D02*
X116479000Y-53901000D01*
X116479000Y-52099000D01*
X118281000Y-52099000D01*
X118281000Y-53901000D01*
X118281000Y-53901000D01*
G37*
G36*
X99030443Y-52105519D02*
X99096627Y-52112037D01*
X99209853Y-52146384D01*
X99266467Y-52163557D01*
X99405087Y-52237652D01*
X99422991Y-52247222D01*
X99458729Y-52276552D01*
X99560186Y-52359814D01*
X99643448Y-52461271D01*
X99672778Y-52497009D01*
X99672779Y-52497011D01*
X99756443Y-52653533D01*
X99756443Y-52653534D01*
X99807963Y-52823373D01*
X99825359Y-53000000D01*
X99807963Y-53176627D01*
X99773616Y-53289853D01*
X99756443Y-53346467D01*
X99682348Y-53485087D01*
X99672778Y-53502991D01*
X99643448Y-53538729D01*
X99560186Y-53640186D01*
X99458729Y-53723448D01*
X99422991Y-53752778D01*
X99422989Y-53752779D01*
X99266467Y-53836443D01*
X99209853Y-53853616D01*
X99096627Y-53887963D01*
X99030442Y-53894482D01*
X98964260Y-53901000D01*
X98875740Y-53901000D01*
X98809558Y-53894482D01*
X98743373Y-53887963D01*
X98630147Y-53853616D01*
X98573533Y-53836443D01*
X98417011Y-53752779D01*
X98417009Y-53752778D01*
X98381271Y-53723448D01*
X98279814Y-53640186D01*
X98196552Y-53538729D01*
X98167222Y-53502991D01*
X98157652Y-53485087D01*
X98083557Y-53346467D01*
X98066384Y-53289853D01*
X98032037Y-53176627D01*
X98014641Y-53000000D01*
X98032037Y-52823373D01*
X98083557Y-52653534D01*
X98083557Y-52653533D01*
X98167221Y-52497011D01*
X98167222Y-52497009D01*
X98196552Y-52461271D01*
X98279814Y-52359814D01*
X98381271Y-52276552D01*
X98417009Y-52247222D01*
X98434913Y-52237652D01*
X98573533Y-52163557D01*
X98630147Y-52146384D01*
X98743373Y-52112037D01*
X98809557Y-52105519D01*
X98875740Y-52099000D01*
X98964260Y-52099000D01*
X99030443Y-52105519D01*
X99030443Y-52105519D01*
G37*
G36*
X104110443Y-52105519D02*
X104176627Y-52112037D01*
X104289853Y-52146384D01*
X104346467Y-52163557D01*
X104485087Y-52237652D01*
X104502991Y-52247222D01*
X104538729Y-52276552D01*
X104640186Y-52359814D01*
X104723448Y-52461271D01*
X104752778Y-52497009D01*
X104752779Y-52497011D01*
X104836443Y-52653533D01*
X104836443Y-52653534D01*
X104887963Y-52823373D01*
X104905359Y-53000000D01*
X104887963Y-53176627D01*
X104853616Y-53289853D01*
X104836443Y-53346467D01*
X104762348Y-53485087D01*
X104752778Y-53502991D01*
X104723448Y-53538729D01*
X104640186Y-53640186D01*
X104538729Y-53723448D01*
X104502991Y-53752778D01*
X104502989Y-53752779D01*
X104346467Y-53836443D01*
X104289853Y-53853616D01*
X104176627Y-53887963D01*
X104110442Y-53894482D01*
X104044260Y-53901000D01*
X103955740Y-53901000D01*
X103889558Y-53894482D01*
X103823373Y-53887963D01*
X103710147Y-53853616D01*
X103653533Y-53836443D01*
X103497011Y-53752779D01*
X103497009Y-53752778D01*
X103461271Y-53723448D01*
X103359814Y-53640186D01*
X103276552Y-53538729D01*
X103247222Y-53502991D01*
X103237652Y-53485087D01*
X103163557Y-53346467D01*
X103146384Y-53289853D01*
X103112037Y-53176627D01*
X103094641Y-53000000D01*
X103112037Y-52823373D01*
X103163557Y-52653534D01*
X103163557Y-52653533D01*
X103247221Y-52497011D01*
X103247222Y-52497009D01*
X103276552Y-52461271D01*
X103359814Y-52359814D01*
X103461271Y-52276552D01*
X103497009Y-52247222D01*
X103514913Y-52237652D01*
X103653533Y-52163557D01*
X103710147Y-52146384D01*
X103823373Y-52112037D01*
X103889557Y-52105519D01*
X103955740Y-52099000D01*
X104044260Y-52099000D01*
X104110443Y-52105519D01*
X104110443Y-52105519D01*
G37*
G36*
X97281000Y-53901000D02*
X95479000Y-53901000D01*
X95479000Y-52099000D01*
X97281000Y-52099000D01*
X97281000Y-53901000D01*
X97281000Y-53901000D01*
G37*
G36*
X145650443Y-52105519D02*
X145716627Y-52112037D01*
X145829853Y-52146384D01*
X145886467Y-52163557D01*
X146025087Y-52237652D01*
X146042991Y-52247222D01*
X146078729Y-52276552D01*
X146180186Y-52359814D01*
X146263448Y-52461271D01*
X146292778Y-52497009D01*
X146292779Y-52497011D01*
X146376443Y-52653533D01*
X146376443Y-52653534D01*
X146427963Y-52823373D01*
X146445359Y-53000000D01*
X146427963Y-53176627D01*
X146393616Y-53289853D01*
X146376443Y-53346467D01*
X146302348Y-53485087D01*
X146292778Y-53502991D01*
X146263448Y-53538729D01*
X146180186Y-53640186D01*
X146078729Y-53723448D01*
X146042991Y-53752778D01*
X146042989Y-53752779D01*
X145886467Y-53836443D01*
X145829853Y-53853616D01*
X145716627Y-53887963D01*
X145650442Y-53894482D01*
X145584260Y-53901000D01*
X145495740Y-53901000D01*
X145429558Y-53894482D01*
X145363373Y-53887963D01*
X145250147Y-53853616D01*
X145193533Y-53836443D01*
X145037011Y-53752779D01*
X145037009Y-53752778D01*
X145001271Y-53723448D01*
X144899814Y-53640186D01*
X144816552Y-53538729D01*
X144787222Y-53502991D01*
X144777652Y-53485087D01*
X144703557Y-53346467D01*
X144686384Y-53289853D01*
X144652037Y-53176627D01*
X144634641Y-53000000D01*
X144652037Y-52823373D01*
X144703557Y-52653534D01*
X144703557Y-52653533D01*
X144787221Y-52497011D01*
X144787222Y-52497009D01*
X144816552Y-52461271D01*
X144899814Y-52359814D01*
X145001271Y-52276552D01*
X145037009Y-52247222D01*
X145054913Y-52237652D01*
X145193533Y-52163557D01*
X145250147Y-52146384D01*
X145363373Y-52112037D01*
X145429557Y-52105519D01*
X145495740Y-52099000D01*
X145584260Y-52099000D01*
X145650443Y-52105519D01*
X145650443Y-52105519D01*
G37*
G36*
X159281000Y-53901000D02*
X157479000Y-53901000D01*
X157479000Y-52099000D01*
X159281000Y-52099000D01*
X159281000Y-53901000D01*
X159281000Y-53901000D01*
G37*
G36*
X161030443Y-52105519D02*
X161096627Y-52112037D01*
X161209853Y-52146384D01*
X161266467Y-52163557D01*
X161405087Y-52237652D01*
X161422991Y-52247222D01*
X161458729Y-52276552D01*
X161560186Y-52359814D01*
X161643448Y-52461271D01*
X161672778Y-52497009D01*
X161672779Y-52497011D01*
X161756443Y-52653533D01*
X161756443Y-52653534D01*
X161807963Y-52823373D01*
X161825359Y-53000000D01*
X161807963Y-53176627D01*
X161773616Y-53289853D01*
X161756443Y-53346467D01*
X161682348Y-53485087D01*
X161672778Y-53502991D01*
X161643448Y-53538729D01*
X161560186Y-53640186D01*
X161458729Y-53723448D01*
X161422991Y-53752778D01*
X161422989Y-53752779D01*
X161266467Y-53836443D01*
X161209853Y-53853616D01*
X161096627Y-53887963D01*
X161030442Y-53894482D01*
X160964260Y-53901000D01*
X160875740Y-53901000D01*
X160809558Y-53894482D01*
X160743373Y-53887963D01*
X160630147Y-53853616D01*
X160573533Y-53836443D01*
X160417011Y-53752779D01*
X160417009Y-53752778D01*
X160381271Y-53723448D01*
X160279814Y-53640186D01*
X160196552Y-53538729D01*
X160167222Y-53502991D01*
X160157652Y-53485087D01*
X160083557Y-53346467D01*
X160066384Y-53289853D01*
X160032037Y-53176627D01*
X160014641Y-53000000D01*
X160032037Y-52823373D01*
X160083557Y-52653534D01*
X160083557Y-52653533D01*
X160167221Y-52497011D01*
X160167222Y-52497009D01*
X160196552Y-52461271D01*
X160279814Y-52359814D01*
X160381271Y-52276552D01*
X160417009Y-52247222D01*
X160434913Y-52237652D01*
X160573533Y-52163557D01*
X160630147Y-52146384D01*
X160743373Y-52112037D01*
X160809557Y-52105519D01*
X160875740Y-52099000D01*
X160964260Y-52099000D01*
X161030443Y-52105519D01*
X161030443Y-52105519D01*
G37*
G36*
X163570443Y-52105519D02*
X163636627Y-52112037D01*
X163749853Y-52146384D01*
X163806467Y-52163557D01*
X163945087Y-52237652D01*
X163962991Y-52247222D01*
X163998729Y-52276552D01*
X164100186Y-52359814D01*
X164183448Y-52461271D01*
X164212778Y-52497009D01*
X164212779Y-52497011D01*
X164296443Y-52653533D01*
X164296443Y-52653534D01*
X164347963Y-52823373D01*
X164365359Y-53000000D01*
X164347963Y-53176627D01*
X164313616Y-53289853D01*
X164296443Y-53346467D01*
X164222348Y-53485087D01*
X164212778Y-53502991D01*
X164183448Y-53538729D01*
X164100186Y-53640186D01*
X163998729Y-53723448D01*
X163962991Y-53752778D01*
X163962989Y-53752779D01*
X163806467Y-53836443D01*
X163749853Y-53853616D01*
X163636627Y-53887963D01*
X163570442Y-53894482D01*
X163504260Y-53901000D01*
X163415740Y-53901000D01*
X163349558Y-53894482D01*
X163283373Y-53887963D01*
X163170147Y-53853616D01*
X163113533Y-53836443D01*
X162957011Y-53752779D01*
X162957009Y-53752778D01*
X162921271Y-53723448D01*
X162819814Y-53640186D01*
X162736552Y-53538729D01*
X162707222Y-53502991D01*
X162697652Y-53485087D01*
X162623557Y-53346467D01*
X162606384Y-53289853D01*
X162572037Y-53176627D01*
X162554641Y-53000000D01*
X162572037Y-52823373D01*
X162623557Y-52653534D01*
X162623557Y-52653533D01*
X162707221Y-52497011D01*
X162707222Y-52497009D01*
X162736552Y-52461271D01*
X162819814Y-52359814D01*
X162921271Y-52276552D01*
X162957009Y-52247222D01*
X162974913Y-52237652D01*
X163113533Y-52163557D01*
X163170147Y-52146384D01*
X163283373Y-52112037D01*
X163349557Y-52105519D01*
X163415740Y-52099000D01*
X163504260Y-52099000D01*
X163570443Y-52105519D01*
X163570443Y-52105519D01*
G37*
G36*
X166110443Y-52105519D02*
X166176627Y-52112037D01*
X166289853Y-52146384D01*
X166346467Y-52163557D01*
X166485087Y-52237652D01*
X166502991Y-52247222D01*
X166538729Y-52276552D01*
X166640186Y-52359814D01*
X166723448Y-52461271D01*
X166752778Y-52497009D01*
X166752779Y-52497011D01*
X166836443Y-52653533D01*
X166836443Y-52653534D01*
X166887963Y-52823373D01*
X166905359Y-53000000D01*
X166887963Y-53176627D01*
X166853616Y-53289853D01*
X166836443Y-53346467D01*
X166762348Y-53485087D01*
X166752778Y-53502991D01*
X166723448Y-53538729D01*
X166640186Y-53640186D01*
X166538729Y-53723448D01*
X166502991Y-53752778D01*
X166502989Y-53752779D01*
X166346467Y-53836443D01*
X166289853Y-53853616D01*
X166176627Y-53887963D01*
X166110442Y-53894482D01*
X166044260Y-53901000D01*
X165955740Y-53901000D01*
X165889558Y-53894482D01*
X165823373Y-53887963D01*
X165710147Y-53853616D01*
X165653533Y-53836443D01*
X165497011Y-53752779D01*
X165497009Y-53752778D01*
X165461271Y-53723448D01*
X165359814Y-53640186D01*
X165276552Y-53538729D01*
X165247222Y-53502991D01*
X165237652Y-53485087D01*
X165163557Y-53346467D01*
X165146384Y-53289853D01*
X165112037Y-53176627D01*
X165094641Y-53000000D01*
X165112037Y-52823373D01*
X165163557Y-52653534D01*
X165163557Y-52653533D01*
X165247221Y-52497011D01*
X165247222Y-52497009D01*
X165276552Y-52461271D01*
X165359814Y-52359814D01*
X165461271Y-52276552D01*
X165497009Y-52247222D01*
X165514913Y-52237652D01*
X165653533Y-52163557D01*
X165710147Y-52146384D01*
X165823373Y-52112037D01*
X165889557Y-52105519D01*
X165955740Y-52099000D01*
X166044260Y-52099000D01*
X166110443Y-52105519D01*
X166110443Y-52105519D01*
G37*
G36*
X101570443Y-52105519D02*
X101636627Y-52112037D01*
X101749853Y-52146384D01*
X101806467Y-52163557D01*
X101945087Y-52237652D01*
X101962991Y-52247222D01*
X101998729Y-52276552D01*
X102100186Y-52359814D01*
X102183448Y-52461271D01*
X102212778Y-52497009D01*
X102212779Y-52497011D01*
X102296443Y-52653533D01*
X102296443Y-52653534D01*
X102347963Y-52823373D01*
X102365359Y-53000000D01*
X102347963Y-53176627D01*
X102313616Y-53289853D01*
X102296443Y-53346467D01*
X102222348Y-53485087D01*
X102212778Y-53502991D01*
X102183448Y-53538729D01*
X102100186Y-53640186D01*
X101998729Y-53723448D01*
X101962991Y-53752778D01*
X101962989Y-53752779D01*
X101806467Y-53836443D01*
X101749853Y-53853616D01*
X101636627Y-53887963D01*
X101570442Y-53894482D01*
X101504260Y-53901000D01*
X101415740Y-53901000D01*
X101349558Y-53894482D01*
X101283373Y-53887963D01*
X101170147Y-53853616D01*
X101113533Y-53836443D01*
X100957011Y-53752779D01*
X100957009Y-53752778D01*
X100921271Y-53723448D01*
X100819814Y-53640186D01*
X100736552Y-53538729D01*
X100707222Y-53502991D01*
X100697652Y-53485087D01*
X100623557Y-53346467D01*
X100606384Y-53289853D01*
X100572037Y-53176627D01*
X100554641Y-53000000D01*
X100572037Y-52823373D01*
X100623557Y-52653534D01*
X100623557Y-52653533D01*
X100707221Y-52497011D01*
X100707222Y-52497009D01*
X100736552Y-52461271D01*
X100819814Y-52359814D01*
X100921271Y-52276552D01*
X100957009Y-52247222D01*
X100974913Y-52237652D01*
X101113533Y-52163557D01*
X101170147Y-52146384D01*
X101283373Y-52112037D01*
X101349557Y-52105519D01*
X101415740Y-52099000D01*
X101504260Y-52099000D01*
X101570443Y-52105519D01*
X101570443Y-52105519D01*
G37*
M02*
